<?xml version="1.0" standalone="no"?>
<!DOCTYPE svg PUBLIC "-//W3C//DTD SVG 1.1//EN" "http://www.w3.org/Graphics/SVG/1.1/DTD/svg11.dtd" >
<!--
2013-9-30: Created.
-->
<svg>
<metadata>
Created by iconfont
</metadata>
<defs>

<font id="iconfont" horiz-adv-x="1024" >
  <font-face
    font-family="iconfont"
    font-weight="500"
    font-stretch="normal"
    units-per-em="1024"
    ascent="896"
    descent="-128"
  />
    <missing-glyph />
    
    <glyph glyph-name="x" unicode="x" horiz-adv-x="1001"
d="M281 543q-27 -1 -53 -1h-83q-18 0 -36.5 -6t-32.5 -18.5t-23 -32t-9 -45.5v-76h912v41q0 16 -0.5 30t-0.5 18q0 13 -5 29t-17 29.5t-31.5 22.5t-49.5 9h-133v-97h-438v97zM955 310v-52q0 -23 0.5 -52t0.5 -58t-10.5 -47.5t-26 -30t-33 -16t-31.5 -4.5q-14 -1 -29.5 -0.5
t-29.5 0.5h-32l-45 128h-439l-44 -128h-29h-34q-20 0 -45 1q-25 0 -41 9.5t-25.5 23t-13.5 29.5t-4 30v167h911zM163 247q-12 0 -21 -8.5t-9 -21.5t9 -21.5t21 -8.5q13 0 22 8.5t9 21.5t-9 21.5t-22 8.5zM316 123q-8 -26 -14 -48q-5 -19 -10.5 -37t-7.5 -25t-3 -15t1 -14.5
t9.5 -10.5t21.5 -4h37h67h81h80h64h36q23 0 34 12t2 38q-5 13 -9.5 30.5t-9.5 34.5q-5 19 -11 39h-368zM336 498v228q0 11 2.5 23t10 21.5t20.5 15.5t34 6h188q31 0 51.5 -14.5t20.5 -52.5v-227h-327z" />
    

    
    <glyph glyph-name="wuliu32pt" unicode="&#58887;" d="M625.2647-29.7644h-253.65841958672326v15.989159349960726c0 42.1124-34.2622 76.3722-76.3763 76.3722-42.1142 0-76.3763-34.2598-76.3763-76.3722v-15.989159349960726H57.561333430604705V556.3871694990796h567.70337295143V-29.764419723427523zM402.4087 2.2139h190.8764117257307V524.4088507991582H89.54096240694678v-522.1949518226642h98.5102489714052c7.7511 52.1936 52.8613 92.3614 107.1787 92.3614C349.5473 94.5743 394.6576 54.4065 402.4087 2.2139zM976.2551-29.7644H851.9103331178039v15.989159349960726c0 42.1124-34.2622 76.3722-76.3763 76.3722s-76.3763-34.2598-76.3763-76.3722v-15.989159349960726h-105.87255917980247V427.07983986856914h200.72213999682202c9.0582 0 23.2142-3.6365 52.5016-31.9953 17.0611-16.5198 37.2992-39.6941 56.9847-65.2538 12.1503-15.7753 72.7627-96.2397 72.7627-131.1731V-29.764419723427523zM882.7127 2.2139h61.56378386967502V198.6577100725708c0 10.4339-19.9193 51.2003-64.2011 109.161-18.3023 23.9568-37.1873 45.8719-53.1751 61.7092-22.9294 22.7146-32.1645 25.3458-33.1609 25.5737H625.2647063820347v-392.8876221921537h43.09055131880992c7.7511 52.1936 52.8613 92.3614 107.1787 92.3614S874.9616 54.4065 882.7127 2.2139zM976.2551 173.4328H704.1224739840721v179.75812399193345h180.72787634276963l4.7989-5.888c21.6312-26.539 42.9906-56.4108 58.6017-81.9544 28.0052-45.8229 28.0052-61.5293 28.0052-66.6908V173.4328125530891zM736.1021 205.4111h206.71931979329167c-2.2206 7.0342-7.809 20.2763-21.8581 43.2627-13.7562 22.5087-32.2505 48.613-51.3543 72.5388H736.1021029604143V205.41113125301047zM775.534-122.1268c-59.7479 0-108.356 48.606-108.356 108.3515 0 59.7445 48.608 108.3505 108.356 108.3505s108.356-48.606 108.356-108.3505C883.89-73.5218 835.2819-122.1268 775.534-122.1268zM775.534 62.596c-42.1142 0-76.3763-34.2598-76.3763-76.3722s34.2622-76.3732 76.3763-76.3732 76.3763 34.2608 76.3763 76.3732S817.6472 62.596 775.534 62.596zM295.2289-122.1268c-59.7479 0-108.356 48.606-108.356 108.3515 0 59.7445 48.608 108.3505 108.356 108.3505 59.7479 0 108.356-48.606 108.356-108.3505C403.5859-73.5218 354.9779-122.1268 295.2289-122.1268zM295.2289 62.596c-42.1142 0-76.3763-34.2598-76.3763-76.3722s34.2622-76.3732 76.3763-76.3732c42.1142 0 76.3763 34.2608 76.3763 76.3732S337.3441 62.596 295.2289 62.596z"  horiz-adv-x="1000" />

    
    <glyph glyph-name="yiwen" unicode="&#58907;" d="M490.892047 769.317271C219.779012 769.317271 0 549.535247 0 278.422212S219.779012-212.474353 490.892047-212.474353s490.893553 219.782024 490.893553 490.895059S762.008094 769.317271 490.892047 769.317271zM538.530635-4.843294c0-13.554447-10.986918-24.545882-24.545882-24.545882l-73.633129 0c-13.554447 0-24.542871 10.991435-24.542871 24.545882l0 73.633129c0 13.560471 10.989929 24.548894 24.542871 24.548894l73.633129 0c13.558965 0 24.545882-10.988424 24.545882-24.548894L538.530635-4.843294zM660.199906 333.013459c-9.865035-14.067953-32.259012-31.990965-60.292518-53.845835l-31.069365-21.439247c-15.088941-11.703718-28.470212-25.330447-33.420047-40.932894-1.691106-5.314259-2.959059-14.049882-3.811388-23.484235-0.429176-4.748047-4.680282-14.435388-14.605553-14.435388-24.323012 0-70.6816 0-79.905129 0-12.988235 0-15.307294 10.173741-15.090447 15.149176 1.439624 32.6144 4.424282 61.571012 17.7152 77.1584 26.902588 31.542212 88.119718 70.808094 88.119718 70.808094 9.319906 7.033976 16.864376 14.677835 22.568659 23.009882 10.375529 14.304376 18.983153 30.013741 18.983153 47.185318 0 19.734588-5.772047 37.725365-17.349271 54.008471-11.536565 16.219859-32.673129 24.3456-63.298259 24.3456-30.146259 0-51.517741-10.006588-64.115953-30.010729-9.304847-14.778729-15.165741-28.367812-17.591718-43.154071-0.861365-5.232941-4.219482-16.254494-15.403671-16.254494-23.633318 0-67.204518 0-77.929412 0-16.596329 0-20.248094 10.753506-19.769224 15.935247 6.008471 65.329694 31.537694 109.964047 76.678024 138.625506 30.692894 19.733082 68.4544 29.635765 113.248376 29.635765 58.858918 0 107.718776-14.031812 146.672941-42.131576 38.884894-28.063624 58.381553-69.647059 58.381553-124.784941C688.914071 384.6336 677.065788 356.158871 660.199906 333.013459z"  horiz-adv-x="1024" />

    
    <glyph glyph-name="weixin" unicode="&#58923;" d="M782.019584 237.048576c-21.4016 0-38.832128 17.550336-38.832128 39.328768 0 21.659648 17.429504 39.209984 38.832128 39.209984 21.403648 0 38.832128-17.550336 38.832128-39.209984C820.851712 254.598912 803.423232 237.048576 782.019584 237.048576M582.272 237.048576c-21.403648 0-38.832128 17.550336-38.832128 39.328768 0 21.659648 17.42848 39.209984 38.832128 39.209984 21.4016 0 38.83008-17.550336 38.83008-39.209984C621.101056 254.598912 603.6736 237.048576 582.272 237.048576M960.365568 181.178112c0 127.06816-113.128448 231.105536-256.507904 240.074752-6.708224 0.365568-13.42976 0.61952-20.150272 0.61952-152.836096 0-276.670464-107.780096-276.670464-240.694272 0-20.041728 2.868224-39.451648 8.215552-57.998336 29.740032-104.925184 138.638336-182.710272 268.453888-182.710272 44.178432 0 85.866496 8.97024 122.825728 25.024512l62.1056-42.440704c0 0 16.553984-11.570176 14.938112 10.707968l-17.550336 66.456576C923.904 44.275456 960.365568 108.995328 960.365568 181.178112M260.059136 451.868416c-21.413888 0-38.832128 17.538048-38.832128 39.195648 0 21.78048 17.41824 39.329792 38.832128 39.329792 21.52448 0 38.832128-17.550336 38.832128-39.329792C298.891264 469.406464 281.583616 451.868416 260.059136 451.868416M504.607744 530.393856c21.415936 0 38.832128-17.550336 38.832128-39.329792 0-21.6576-17.416192-39.195648-38.832128-39.195648-21.52448 0-38.832128 17.538048-38.832128 39.195648C465.775616 512.844544 483.083264 530.393856 504.607744 530.393856M683.707392 441.914112c5.967872 0 11.813888-0.254976 17.672192-0.509952-22.777856 134.54336-155.945984 237.850624-316.864512 237.850624-176.850944 0-320.2304-124.845056-320.2304-278.664192 0-85.756928 44.556288-162.412544 114.501632-213.567488l-23.652352-89.234432c0 0-8.082432-29.6192 22.534144-16.310272l88.236032 60.246016c36.717568-12.821504 76.667904-19.919872 118.60992-19.919872 3.6096 0 7.08608 0.254976 10.573824 0.254976-5.103616 19.045376-7.839744 38.832128-7.839744 59.116544C387.249152 324.921088 520.285184 441.914112 683.707392 441.914112"  horiz-adv-x="1024" />

    
    <glyph glyph-name="tushu" unicode="&#59018;" d="M40.857 728.304c-14.758 0-26.745-11.988-26.745-26.719v-635.734c0-7.547 3.205-14.799 8.84-19.878 5.566-4.995 12.396-7.522 20.676-6.733 0.542 0.055 59.274 5.973 136.156 5.973 78.661 0 189.023-6.326 268.080-36.386 3.054-1.166 6.246-1.764 9.489-1.764 4.266 0 8.242 1.304 11.906 3.178 7.819-3.042 15.654-6.219 23.514-9.667 2.89-1.275 5.959-1.927 9.109-1.927 3.992 0 7.833 1.359 11.336 3.394 3.504-2.036 7.345-3.394 11.336-3.394 3.136 0 6.218 0.652 9.083 1.9 7.861 3.474 15.721 6.653 23.541 9.693 3.652-1.873 7.644-3.178 11.893-3.178 3.258 0 6.434 0.599 9.516 1.764 79.029 30.059 189.391 36.386 268.067 36.386 76.883 0 135.615-5.919 136.24-5.973 7.644-0.679 15.032 1.737 20.609 6.733 5.62 5.077 8.825 12.33 8.825 19.878v635.734c0 14.731-12.003 26.719-26.745 26.719-14.731 0-26.732-11.988-26.732-26.719v-606.683c-18.070 1.304-41.949 2.635-69.659 3.394v638.641c0 13.767-9.422 25.211-21.927 26.609-19.835 2.187-40.092 3.313-60.212 3.313-164.341 0-279.797-72.755-293.834-82.030-14.051 9.273-129.492 82.030-293.832 82.030-20.12 0-40.376-1.128-60.226-3.313-12.489-1.399-21.912-12.843-21.912-26.609v-638.641c-27.71-0.759-51.591-2.091-69.675-3.394v606.683c0.004 14.731-11.983 26.719-26.714 26.719zM548.955 645.381c31.701 18.288 129.872 67.991 258.101 67.991 11.12 0 22.319-0.381 33.371-1.1v-605.582c-12.884 0.787-26.434 1.195-40.376 1.195-61.244 0-153.767-7.766-251.095-44.071v581.566zM186.015 712.271c11.038 0.719 22.237 1.1 33.371 1.1 128.215 0 226.401-49.704 258.101-67.991v-581.565c-97.343 36.303-189.851 44.071-251.095 44.071-13.943 0-27.493-0.408-40.376-1.195v605.581z"  horiz-adv-x="1024" />

    
    <glyph glyph-name="paimai" unicode="&#58958;" d="M523.132928 369.892096c0 0 87.19872 87.1168 90.28608 90.174464 8.218624 8.194048 14.47424 16.495616 29.874176 11.362304 15.949824-5.353472 34.41152 7.564288 42.27584 24.004608 6.908928 14.444544 3.769344 30.476288-8.956928 43.28448-64.886784 65.160192-129.80224 130.290688-194.768896 195.342336-13.73696 13.73696-31.188992 16.222208-45.826048 7.071744-19.034112-11.879424-26.980352-30.257152-19.716096-49.047552 2.567168-6.607872-0.191488-9.312256-3.878912-13.024256-59.834368-60.00128-119.667712-120.05376-179.475456-180.078592-33.644544-33.780736-67.398656-67.42528-100.93568-101.343232-4.750336-4.916224-8.628224-6.77376-15.837184-4.15232-17.752064 6.5536-36.32128-2.294784-47.517696-21.136384-8.303616-13.98272-5.79072-31.515648 6.935552-44.242944 65.324032-65.703936 130.755584-131.355648 196.189184-196.89984 12.890112-12.834816 31.34976-15.509504 45.0048-6.827008 19.2 12.127232 26.217472 29.769728 20.429824 49.15712-1.010688 3.33312-0.082944 8.956928 2.209792 11.252736 24.250368 24.73984 96.646144 97.384448 96.646144 97.384448l469.938176-430.503936 52.708352 53.254144L523.132928 369.892096zM131.081216-36.470016l335.577088 0 0-111.858688-335.577088 0 0 111.858688Z"  horiz-adv-x="1024" />

    
    <glyph glyph-name="yundong" unicode="&#59019;" d="M1004.562432 246.573056c-1.7408 11.563008-5.618688 37.476352-17.123328 56.046592 5.21728 24.267776 6.029312 67.11296-15.742976 138.124288 5.76 28.35968 11.705344 108.589056-81.79712 178.110464-4.862976 4.158464-13.874176 9.82528-26.97728 9.82528-34.233344 0-58.387456-38.139904-73.571328-66.828288-6.23104-11.762688-11.706368-11.762688-14.98624-11.762688-13.929472 0-34.605056 11.492352-61.437952 34.161664-1.85344 1.568768-3.477504 2.929664-5.018624 4.120576-0.297984 0.369664-0.641024 0.78336-1.010688 1.217536-12.376064 14.900224-45.267968 54.473728-92.40576 54.473728-23.653376 0-46.024704-9.92256-66.485248-29.493248-62.850048-60.132352-211.616768-178.459648-287.141888-192.959488-19.904512-3.8144-35.060736-7.186432-54.807552-11.599872-15.440896-3.442688-33.762304-7.527424-59.584512-12.981248C81.441792 383.364096 26.805248 368.436224 17.009664 324.2496c-1.169408-5.118976-1.910784-10.51648-2.182144-15.978496-2.793472-54.23616 34.404352-126.759936 227.301376-164.513792 8.269824-2.060288 60.581888-14.11584 150.094848-14.11584 55.50592 0 114.318336 4.62848 173.546496 13.581312 0.812032 0.086016 81.783808 8.51968 170.227712 8.51968 31.136768 0 59.738112-1.042432 85.016576-3.101696l2.054144-0.162816 2.05312 0.119808c30.413824 1.816576 132.3008 11.07968 166.962176 53.854208C1002.636288 215.453696 1006.942208 230.703104 1004.562432 246.573056zM158.505984 339.883008c26.133504 5.51936 44.655616 9.645056 60.26752 13.1328 19.121152 4.27008 33.792 7.539712 53.083136 11.236352C356.939776 380.587008 497.030144 489.571328 569.008128 554.423296c-0.01024-0.387072-0.028672-0.77312-0.028672-1.163264 0-24.593408 20.004864-44.599296 44.599296-44.599296 24.595456 0 44.599296 20.005888 44.599296 44.599296 0 1.252352-0.063488 2.48832-0.165888 3.714048 1.55136-1.798144 2.8928-3.410944 3.97312-4.7104 3.321856-4.000768 6.516736-7.842816 11.035648-10.752 0.6144-0.505856 1.353728-1.138688 2.224128-1.880064 15.525888-13.111296 56.774656-47.942656 99.121152-47.942656 28.316672 0 51.970048 15.212544 66.599936 42.845184 9.48224 17.91488 16.68096 27.268096 21.11488 32 69.748736-56.368128 52.383744-115.017728 51.700736-117.228544l-3.167232-9.182208 2.965504-9.24672c10.800128-33.637376 15.648768-59.05408 17.472512-77.74208-14.193664-1.931264-38.393856-4.450304-76.541952-6.280192-36.586496-1.718272-68.867072-10.635264-109.71648-21.92896-50.342912-13.90592-118.657024-32.77824-234.529792-49.69472-17.779712 12.434432-53.481472 30.127104-97.824768 14.178304-10.093568-3.628032-19.617792-7.676928-29.285376-11.805696-33.476608-14.307328-65.143808-27.759616-134.181888-24.885248-22.499328 0.362496-88.799232 5.537792-125.028352 24.98048-8.225792 4.320256-32.694272 18.791424-47.066112 33.732608-0.54784 0.56832-1.052672 1.108992-1.528832 1.63328C80.436224 318.188544 98.568192 327.286784 158.505984 339.883008zM823.627776 207.020032c-26.304512 2.075648-55.778304 3.122176-87.627776 3.122176-91.652096 0-172.949504-8.482816-177.642496-9.010176-57.645056-8.682496-113.537024-13.088768-166.132736-13.088768-44.940288 0-79.593472 3.265536-102.703104 6.4512 54.669312 2.983936 87.22432 16.869376 116.575232 29.408256 8.626176 3.678208 17.108992 7.320576 26.105856 10.559488 20.675584 7.435264 37.769216-2.061312 44.983296-7.243776l0.699392-1.717248 4.491264-2.9952 7.94112-9.090048 15.640576 2.203648c127.239168 17.8944 200.72448 38.1952 254.37696 53.016576 40.265728 11.12064 66.854912 18.471936 96.941056 19.892224 22.5792 1.079296 40.758272 2.408448 55.26528 3.76832l-40.737792-44.177408 69.951488 14.050304c1.496064-5.039104 3.236864-12.4672 4.8896-23.166976C937.678848 225.90464 879.248384 210.67776 823.627776 207.020032z"  horiz-adv-x="1024" />

    
    <glyph glyph-name="home" unicode="&#58903;" d="M299.035648-109.120768c-4.291584 1.73056-8.45824 3.923968-12.894208 5.121024-49.661952 13.401088-83.7888 55.465984-84.246528 107.098112-0.770048 86.971392-0.364544 173.954048-0.301056 260.931584 0.01536 20.932608 10.585088 33.552384 27.085824 33.263616 16.29184-0.285696 27.495424-13.42464 27.544576-33.793024 0.19968-81.54112 0.018432-163.084288 0.116736-244.626432 0.062464-51.477504 20.272128-71.747584 71.241728-71.754752 122.99264-0.018432 245.98528-0.028672 368.97792 0.00512 48.095232 0.013312 69.08416 21.030912 69.17632 69.718016 0.152576 80.183296-0.049152 160.366592 0.18944 240.548864 0.023552 7.97184-0.768 18.896896 3.7888 23.250944 7.873536 7.524352 19.82976 15.440896 29.739008 15.035392 13.504512-0.55296 21.272576-12.20096 21.193728-27.58144-0.30208-59.116544-0.094208-118.235136-0.088064-177.353728 0.003072-27.181056 0.228352-54.36416-0.08192-81.54112-0.666624-58.371072-32.270336-98.746368-88.546304-113.84832-3.131392-0.840704-5.921792-2.953216-8.870912-4.473856C581.720064-109.120768 440.377344-109.120768 299.035648-109.120768zM505.380864 663.629568c-4.595712-6.788096-8.229888-14.541824-13.928448-20.222976-124.603392-124.23168-249.42592-248.244224-374.237184-372.268032-17.082368-16.974848-24.224768-17.425408-39.053312-2.925568-15.04768 14.713856-15.102976 22.08256-0.262144 37.475328 1.414144 1.466368 2.889728 2.874368 4.334592 4.31104 133.49376 132.634624 266.979328 265.27744 400.487424 397.896704 20.704256 20.566016 36.004864 20.51584 56.84224-0.18432 133.984256-133.106688 267.96032-266.221568 401.89952-399.374336 17.952768-17.847296 17.90976-24.513536 2.377728-40.41728-12.720128-13.024256-24.122368-12.626944-36.401152 0.420864-11.167744 11.86816-22.992896 23.117824-34.555904 34.612224-114.67264 113.98656-229.4016 227.917824-343.86944 342.109184-5.1968 5.184512-8.05888 12.709888-12.008448 19.145728C513.13152 664.014592 509.256704 663.82208 505.380864 663.629568z"  horiz-adv-x="1024" />

    
    <glyph glyph-name="qq" unicode="&#58924;" d="M209.107968 343.465728 207.479808 348.485376 206.17728 355.066624 205.263872 358.668032 205.263872 363.179776 205.263872 368.589568 205.263872 373.47712 206.828544 379.27808 208.456704 385.46816 210.541568 391.906048 213.378048 399.106816 217.125888 406.585088 222.403584 414.080768 222.403584 419.34208 222.9248 424.24704 223.707136 430.944 225.989632 438.405888 228.074496 446.521088 229.735424 450.268928 231.657472 453.73824 234.134528 457.599744 236.807168 460.452608 236.807168 465.71392 236.807168 471.662336 236.807168 478.993152 238.37184 488.540928 239.935488 499.619584 242.737152 512.882432 246.58432 526.66752 249.450496 534.274816 252.286976 542.51904 255.38048 550.241024 259.095552 558.487296 262.87616 567.51488 267.242496 576.002816 272.131072 585.027328 278.322176 594.05696 281.157632 599.203584 284.219392 603.45728 290.835456 612.988672 297.613312 622.520064 305.369088 632.311552 313.64608 641.859328 322.639872 651.243264 332.024832 660.923136 343.364608 671.351552 350.599168 677.67168 359.364608 684.498688 368.260096 690.544384 377.9072 696.343296 387.160064 701.492992 397.589504 705.746688 408.667136 711.040768 419.683328 714.641152 430.695424 718.371584 442.55744 722.10304 454.418432 724.938496 466.932736 727.270144 479.57504 729.321216 492.024832 730.999552 504.537088 732.694272 517.830656 733.44384 530.476032 733.44384 543.57504 733.44384 557.129728 733.44384 570.231808 731.781888 583.396352 730.21824 596.822016 728.798976 609.26976 725.83552 622.434304 723.016448 634.784768 719.806208 648.307712 716.190464 660.690944 711.80672 672.553984 706.78912 685.196288 701.492992 696.76544 695.692032 707.975168 689.2736 718.954496 682.170112 728.469504 675.602176 732.83584 671.872768 737.465344 669.16736 746.263552 661.690112 753.691648 654.469888 761.059328 646.99264 768.290816 638.74944 774.221824 630.764288 781.2608 622.520064 786.213888 613.64096 791.201792 605.770496 796.51328 596.613888 800.877568 588.630784 808.306688 571.751168 811.958272 563.000064 814.79168 554.886912 817.62816 546.121472 820.169728 537.877248 821.993472 530.788096 824.27392 522.414848 828.315648 507.471616 830.88896 494.454528 832.55296 481.828608 833.985536 471.662336 836.267008 456.198912 836.789248 453.73824 838.612992 450.90176 843.500544 442.918656 846.62784 437.527296 849.432576 431.84 853.015552 425.796352 856.144896 418.560768 858.165248 411.097856 860.382208 402.985728 862.075904 394.62784 862.859264 390.503168 863.509504 385.46816 863.509504 381.087488 862.859264 376.703744 862.859264 371.279616 861.55264 366.015232 859.20768 355.832576 856.536064 350.685952 854.5792 344.883968 854.5792 343.465728 855.492608 341.657344 858.165248 337.404672 869.76512 320.26496 878.954496 307.392256 883.321856 298.756864 889.25184 289.356544 894.401536 279.042816 900.330496 267.97952 906.262528 255.597312 912.944128 241.552128 916.68992 232.932096 920.143872 224.557824 923.14112 215.662336 926.075904 207.678208 928.29184 199.303936 930.571264 191.434496 933.440512 176.102144 935.72096 160.395008 937.284608 146.48192 937.284608 138.88896 937.284608 132.696832 937.284608 126.896896 936.2432 119.923456 934.740992 107.946752 932.658176 97.128192 929.46432 87.353088 928.29184 83.360512 926.075904 78.586624 924.1856 75.230976 921.70752 71.109376 919.493632 68.518656 916.68992 65.178368 914.214912 62.47296 911.541248 60.15872 908.34944 58.743552 905.481216 57.325312 903.135232 56.55936 901.081088 56.55936 899.549184 56.55936 897.236992 57.325312 892.836864 59.509504 890.816512 60.924672 888.7296 62.47296 886.417408 64.543488 884.103168 66.85568 880.260096 71.109376 875.695104 77.153024 872.113152 83.360512 868.52608 88.362752 865.041408 94.162688 860.120064 104.47744 854.5792 115.18336 853.92896 115.558144 853.015552 115.558144 850.737152 113.879808 849.432576 111.059712 847.282176 107.572992 843.500544 97.128192 837.83168 82.320128 830.532608 64.543488 825.058304 55.646976 819.289088 46.37568 812.478464 35.948288 805.245952 25.750272 801.529856 21.120768 797.033472 16.103168 786.704384 5.919488 787.61472 5.023488 789.015552 3.589888 794.167296 0.51072 815.67232-9.787648 825.058304-15.065344 833.985536-20.214016 842.84928-26.668288 850.737152-33.379584 854.5792-36.345088 857.449472-39.830784 860.382208-43.806976 862.859264-48.20608 864.161792-51.821824 865.789952-56.190208 866.44224-59.904256 867.222528-64.30336 866.44224-67.269888 866.44224-70.202624 865.789952-73.331968 864.161792-76.131584 863.509504-78.349568 862.075904-81.021184 858.165248-86.331648 854.5792-90.601728 851.77856-93.793536 849.432576-96.13952 843.500544-100.507904 836.789248-104.255744 829.620224-107.872512 821.993472-111.326464 813.390848-114.650368 808.82688-116.084992 804.723712-117.256448 794.816512-119.570688 784.520192-121.753856 774.221824-123.969792 763.01312-125.762816 751.413248-126.251264 739.550208-127.682816 727.820288-127.682816 715.437056-127.682816 702.728192-127.682816 689.431552-126.901504 677.049344-125.762816 663.752704-123.969792 650.523648-122.536192 636.577792-120.581376 623.085568-117.256448 609.922048-114.650368 596.822016-110.935296 583.396352-106.177792 570.231808-102.168832 563.321856-99.854592 557.129728-97.640704 553.222144-96.13952 549.376-95.357184 544.357376-95.357184 538.426368-95.357184 525.784064-94.447872 519.363584-93.793536 511.117312-92.884224 505.84064-97.640704 498.605056-102.168832 488.828928-106.961152 478.012416-112.891136 471.430144-116.084992 464.585728-118.658304 449.40288-124.851456 441.15456-126.901504 432.520192-129.248512 420.528128-131.529984 413.03552-132.182272 405.08416-132.833536 396.80512-133.744896 387.160064-134.137088 377.9072-134.137088 368.260096-134.137088 347.763712-134.137088 325.507072-133.744896 303.935488-131.529984 292.98688-130.0288 282.42944-128.4672 272.131072-126.901504 261.833728-124.851456 252.286976-121.753856 242.737152-119.570688 234.134528-116.084992 225.989632-112.891136 218.42944-109.240576 211.84512-105.265408 205.263872-100.507904 203.04896-98.16192 200.114176-95.357184 197.899264-92.884224 195.878912-90.080512 194.054144-87.213312 192.620544-84.408576 190.5664-78.349568 189.817856-75.252992 188.905472-71.767296 188.905472-68.57344 189.817856-64.954624 189.817856-61.33888 190.5664-57.722112 190.5664-55.53792 190.5664-50.52032 190.925824-46.64448 192.620544-42.243328 194.054144-37.876992 196.661248-32.597248 198.549504-30.543104 200.114176-28.231936 204.22144-23.212288 207.479808-20.606208 210.541568-18.813184 213.378048-16.500992 217.908224-15.065344 221.4912-12.915968 225.989632-10.56896 231.136256-9.037056 236.285952-7.473408 242.21696-6.2016 247.886848-5.420288 254.598144-4.524288 261.833728-4.004096 263.757824-3.350784 264.14592-3.350784 265.060352-2.569472 265.060352-1.688832 263.757824 0.119552 259.878912 1.92896 250.233856 10.302208 243.77856 15.45088 236.285952 22.016768 228.726784 29.347584 220.838912 38.765312 211.84512 49.325824 208.456704 55.011072 203.96032 60.924672 200.114176 67.769088 196.661248 75.230976 191.968256 82.320128 188.905472 90.432256 185.289728 98.547456 181.67296 107.572992 178.998272 116.190976 176.521216 126.896896 175.739904 127.288064 174.990336 127.288064 174.600192 128.052992 173.686784 128.052992 172.155904 127.288064 171.373568 126.896896 170.331136 125.087488 169.939968 122.905344 169.157632 120.964864 167.788544 117.755648 163.356672 109.886208 161.076224 105.113344 157.46048 100.99072 153.581568 95.989504 149.34528 90.432256 144.847872 85.527296 139.569152 80.770816 134.647808 76.274432 129.272832 72.76928 123.3408 69.039872 117.671936 66.85568 110.957568 65.178368 104.37632 64.543488 103.724032 64.543488 102.812672 64.543488 101.312512 65.178368 100.139008 67.769088 98.184192 69.039872 95.642624 75.230976 94.078976 78.586624 92.38528 83.360512 90.983424 88.362752 90.233856 93.268736 88.147968 104.47744 87.365632 111.059712 87.365632 117.755648 87.365632 132.696832 88.147968 148.795136 89.45152 157.03936 90.983424 165.54368 92.38528 174.683904 94.861312 183.188224 97.662976 192.998144 100.530176 202.5152 104.37632 212.322048 107.992064 221.723392 112.979968 231.25376 117.671936 241.552128 123.3408 251.212544 130.021376 261.657344 136.832 271.058688 143.936512 281.487104 149.866496 288.70528 157.46048 297.077504 165.44256 305.4528 169.157632 309.445376 173.686784 313.959168 180.238336 319.644416 186.948608 325.430016 197.899264 335.221504 206.17728 341.266176Z"  horiz-adv-x="1024" />

    
    <glyph glyph-name="shangchengxitongtubiaozitihuayuanwenjian41" unicode="&#58974;" d="M706.24 642.656c6.272 0 11.392 5.056 11.392 11.392 0 6.336-5.12 11.456-11.392 11.456L317.888 665.504c-6.4 0-11.392-5.12-11.392-11.456 0-6.336 4.992-11.392 11.392-11.392L706.24 642.656zM706.24 619.808 272.128 619.808c-75.008 0-110.016-26.688-126.016-49.024-19.776-27.456-23.488-64-10.496-103.104 20.096-60.416 87.872-133.056 129.472-165.312C267.264 300.768 269.632 300 272.128 300c3.52 0 6.848 1.472 9.024 4.416C284.992 309.408 284.096 316.512 279.104 320.48 241.024 350.112 175.744 419.616 157.376 474.912 146.752 506.848 149.248 536.16 164.608 557.408 183.232 583.264 220.352 596.96 272.128 596.96l34.368 0 0-217.024c0-153.6 152.384-242.176 183.488-258.624-0.512-1.344-0.896-2.624-0.896-4.032l0-57.152c0-6.336 5.12-11.392 11.52-11.392C506.88 48.736 512 53.792 512 60.128l0 57.152c0 1.344-0.384 2.56-0.768 3.776 34.624 16.256 206.4 104.768 206.4 258.944L717.632 596.96l34.24 0c51.776 0 88.896-13.696 107.52-39.552 15.36-21.312 17.856-50.624 7.232-82.496-14.4-43.2-86.144-126.848-121.856-154.496-4.864-3.968-5.888-11.072-1.984-16.064C745.024 301.472 748.352 300 751.872 300c2.368 0 4.864 0.768 6.976 2.368 39.488 30.656 113.28 116.992 129.472 165.312 12.992 39.104 9.28 75.712-10.496 103.104-16 22.4-51.008 49.024-126.016 49.024L706.24 619.808zM694.72 379.936c0-139.2-163.392-223.936-193.856-238.528-28.032 15.104-171.648 99.712-171.648 238.528L329.216 596.96l365.504 0L694.72 379.936zM374.976 25.888c-26.112 0-45.76-19.712-45.76-45.696l0-34.24c0-6.336 5.12-11.456 11.52-11.456l319.744 0c6.272 0 11.392 5.12 11.392 11.456l0 32.576c0 26.56-20.032 47.36-45.632 47.36L374.976 25.888zM649.152-21.472l0-21.12L352.128-42.592l0 22.784c0 13.44 9.344 22.848 22.848 22.848l251.264 0C639.232 3.04 649.152-7.584 649.152-21.472z"  horiz-adv-x="1024" />

    
    <glyph glyph-name="bianji" unicode="&#58886;" d="M325.09007 40.501828c9.533511-9.535167 24.980951-9.535167 34.516509 0L967.416012 770.304366c9.533511 9.534144 9.533511 25.000394 0 34.539654-9.535558 9.509585-24.988115 9.509585-34.521626 0L325.09007 75.019992C315.554512 65.486872 315.554512 50.034948 325.09007 40.501828zM951.367867 300.610914c-13.463168 0-24.410946-10.9197-24.410946-24.409946l0-390.532531c0-26.938536-21.861786-48.820915-48.812682-48.820915L145.856785-163.152479c-26.957036 0-48.817799 21.88238-48.817799 48.820915L97.038986 617.9177c0 26.980491 21.860763 48.816822 48.817799 48.816822l341.73585 0c13.466238 0 24.402759 10.940167 24.402759 24.405853 0 13.495362-10.937545 24.410969-24.402759 24.410969l-341.736874 0c-53.918166 0-97.636621-43.716664-97.636621-97.633644l0-732.249263c0-53.92005 43.718455-97.643877 97.636621-97.643877l732.287453 0c53.916119 0 97.637645 43.723827 97.637645 97.643877L975.78086 276.199944C975.78086 289.69019 964.836151 300.610914 951.367867 300.610914z"  horiz-adv-x="1024" />

    
    <glyph glyph-name="yanjing" unicode="&#58926;" d="M1023.616 300.128c0-98.048-210.944-307.136-511.616-307.136-292.992-0.064-511.616 205.632-511.616 307.136 0 101.44 219.584 306.816 511.616 306.816C814.976 606.944 1023.68 401.568 1023.616 300.128L1023.616 300.128zM512.448 550.88C376.256 550.88 265.92 438.56 265.92 300s110.4-250.944 246.528-250.944c136.192 0 246.592 112.384 246.592 250.944C759.04 438.56 648.64 550.88 512.448 550.88L512.448 550.88zM512 460.128c-86.72 0-156.992-71.552-156.992-159.808S425.28 140.576 512 140.576s156.992 71.552 156.992 159.808C668.992 388.64 598.72 460.128 512 460.128L512 460.128z"  horiz-adv-x="1024" />

    
    <glyph glyph-name="renshu" unicode="&#59050;" d="M503.232 780C261.024 780 64 582.944 64 340.768c0-242.176 197.024-439.232 439.232-439.232s439.264 197.056 439.264 439.232C942.464 582.944 745.408 780 503.232 780zM503.232-68.16c-225.504 0-408.928 183.424-408.928 408.928 0 225.504 183.424 408.928 408.928 408.928s408.928-183.424 408.928-408.928C912.16 115.296 728.704-68.16 503.232-68.16zM720.096 361.824c26.944 20.608 44.608 52.736 44.608 89.184 0 62.08-50.528 112.64-112.672 112.64-41.696 0-77.76-23.04-97.216-56.8-20.288 49.888-69.088 85.184-126.144 85.184-75.2 0-136.32-61.152-136.32-136.288 0-46.24 23.264-87.04 58.528-111.68-67.584-14.72-105.888-60.192-105.888-130.656 0-86.56 127.552-131.456 195.84-136.288 12.288-0.864 25.056-1.376 37.952-1.376 45.76 0 106.752 6.208 137.792 35.808 11.872 11.36 19.2 24.672 22.016 39.488 3.904-0.672 7.52-1.76 11.968-1.76 5.632 0 12 0.576 19.232 1.856 100.64 17.6 121.376 77.92 121.088 125.408C790.688 308.128 766.336 344.576 720.096 361.824zM652.032 533.344c45.408 0 82.368-36.928 82.368-82.336 0-38.048-26.048-69.824-61.184-79.264-4.896 0.384-9.824 0.736-14.592 0.736-8.736 0-16.544-0.832-23.84-1.984-37.152 8-65.088 40.992-65.088 80.48C569.696 496.416 606.624 533.344 652.032 533.344zM591.712 356.192c-7.36-4.192-12.352-8.16-14.784-10.368-11.36-10.208-24.064-24-30.816-38.624-14.112 9.728-32.384 19.872-55.36 27.904 27.104 14.016 48.992 36.512 61.728 64.384C561.632 381.824 575.04 366.848 591.712 356.192zM322.624 455.744c0 58.464 47.552 106.016 106.016 106.016 58.432 0 105.984-47.552 105.984-106.016s-47.552-106.016-105.984-106.016C370.176 349.696 322.624 397.28 322.624 455.744zM595.584 133.472c-18.208-17.44-60.8-27.424-116.8-27.424-12.128 0-24.192 0.48-35.808 1.312-60.192 4.224-167.68 43.328-167.68 106.048 0 70.336 42.496 106.016 126.24 106.016 85.44 0 133.952-39.264 150.816-56.128 7.52-7.52 14.208-15.008 20.384-22.368 10.016-12.032 18.048-23.584 24.064-34.528 0.864-1.536 1.664-3.072 2.432-4.608 2.304-4.608 4.32-9.056 5.856-13.376 0.224-0.64 0.576-1.312 0.736-1.952 1.696-4.992 2.72-9.76 3.296-14.304 0.352-2.528 0.672-5.088 0.672-7.456C609.6 152.64 604.96 142.432 595.584 133.472zM664.608 180.96c-5.28-0.896-9.92-1.344-14.016-1.344-5.664 0-9.472 0.864-12.16 2.016-1.12 6.016-2.912 11.968-5.088 17.92-0.48 1.28-1.12 2.624-1.632 3.904-1.952 4.832-4.096 9.632-6.592 14.336-0.896 1.76-1.92 3.488-2.912 5.248-2.816 4.96-5.824 9.824-9.024 14.56-0.864 1.28-1.664 2.528-2.56 3.776-5.088 7.264-10.496 14.144-16.096 20.736-6.368 8.768-13.536 16.576-22.912 25.632-0.096 5.92 7.84 19.552 25.6 35.52 2.72 2.432 15.04 12.32 38.208 16.704 5.472-0.832 10.944-1.696 16.64-1.696 7.68 0 15.168 0.8 22.4 2.272 5.248-0.544 10.272-0.544 15.712-1.568 51.456-9.984 70.304-42.912 70.432-62.624C760.896 223.52 729.536 192.352 664.608 180.96z"  horiz-adv-x="1024" />

    
    <glyph glyph-name="jiantouyou" unicode="&#58992;" d="M507.913259-147.013917c-249.059397 0-450.962913 200.209858-450.962913 447.184809 0 246.973928 201.902492 447.184809 450.962913 447.184809 249.061444 0 450.963936-200.210881 450.963936-447.184809C958.877195 53.195941 756.974703-147.013917 507.913259-147.013917zM507.913259 710.088936c-228.30692 0-413.382499-183.523827-413.382499-409.919067s185.076602-409.919067 413.382499-409.919067c228.307944 0 413.382499 183.52485 413.382499 409.919067S736.22018 710.088936 507.913259 710.088936zM708.36669 280.409826 509.051222 82.76642c-11.000992-10.900258-28.855347-10.900258-39.85634 0-11.010203 10.916631-11.010203 28.621874 0 39.539528l151.936496 150.661372L312.534611 272.96732c-15.561032 0-28.185054 12.519128-28.185054 27.949562 0 15.438621 12.624022 27.949562 28.185054 27.949562l307.090399 0L469.194883 478.036859c-11.010203 10.917654-11.010203 28.612665 0 39.522132 11.000992 10.917654 28.855347 10.917654 39.85634 0l197.14904-195.497533c3.688147-3.057639 6.605712-6.823406 8.3321-11.354606 0.145315-0.372483 0.108475-0.782829 0.237417-1.163499 0.91692-2.756787 1.741739-5.567809 1.741739-8.625448 0-0.054235-0.017397-0.100284-0.017397-0.155543C716.659904 293.410931 714.017619 286.013451 708.36669 280.409826z"  horiz-adv-x="1024" />

    
    <glyph glyph-name="gou" unicode="&#58906;" d="M958.367568 576.370445 930.967422 605.010739 386.079571 46.998799 84.721968 362.177108 62.933863 339.83117 364.290443 24.684584 364.284303 24.678444 391.685472-3.962873 413.473577 18.349295 413.472554 18.350318Z"  horiz-adv-x="1024" />

    
    <glyph glyph-name="jianyingset" unicode="&#58979;" d="M548.928-190.88 475.136-190.88c-26.432 0-47.872 21.44-47.872 47.808l0 44.16c0 15.616-12.672 32.832-27.648 37.504l-62.784 25.728c-15.872 8.512-36.16 4.352-46.656-6.208l-31.488-31.424c-17.92-17.984-49.6-17.984-67.584 0l-52.288 52.224c-18.56 18.624-18.56 49.024 0 67.712l31.488 31.36c10.88 10.816 14.08 32.256 6.784 45.888L150.976 186.72C146.048 202.656 128.96 215.264 113.28 215.328L68.992 215.328c-26.368 0-47.808 21.44-47.808 47.808L21.184 336.928c0 26.368 21.44 47.808 47.808 47.808l44.288 0c15.68 0 32.832 12.672 37.504 27.584l25.728 62.784C184.384 489.888 181.312 510.88 170.24 521.952l-31.36 31.424C129.856 562.4 124.864 574.368 124.864 587.168s4.992 24.832 13.952 33.792l52.224 52.16c17.92 17.984 49.6 17.984 67.584 0l31.552-31.36c10.56-10.56 32.704-13.888 45.76-6.784L398.72 660.896C414.656 665.824 427.264 683.04 427.264 698.72L427.264 743.072c0 26.368 21.44 47.808 47.872 47.808l73.792 0c26.368 0 47.808-21.44 47.808-47.808L596.736 698.72c0-15.424 12.864-32.96 27.648-37.504l62.656-25.728c15.744-8.32 36.288-4.224 46.848 6.272l31.424 31.424c17.984 17.984 49.6 17.984 67.648 0l52.288-52.16c18.624-18.624 18.624-48.96 0-67.712L853.76 521.888c-11.008-11.008-14.08-32-6.656-45.824l25.856-62.784c4.992-15.936 22.208-28.544 37.824-28.544l44.352 0c26.304 0 47.744-21.44 47.744-47.808l0-73.92c0-26.368-21.44-47.808-47.744-47.808L910.72 215.2c-15.36 0-32.896-12.928-37.504-27.648l-25.728-62.656c-7.744-14.656-4.608-36.032 6.272-46.848l31.488-31.36c18.624-18.688 18.624-49.088 0-67.712l-52.288-52.224c-17.984-17.984-49.6-17.984-67.648 0l-31.296 31.424c-10.496 10.368-32.832 13.824-45.824 6.656L625.28-61.088c-15.552-4.928-28.48-22.464-28.48-37.824l0-44.16C596.736-169.44 575.296-190.88 548.928-190.88L548.928-190.88zM318.528-9.376c10.048 0 19.584-2.304 27.584-6.656l60.864-24.96c23.168-7.168 41.984-32.768 41.984-57.92l0-44.16c0-14.4 11.712-26.048 26.112-26.048l73.792 0c14.4 0 26.048 11.712 26.048 26.048l0 44.16c0 25.152 18.816 50.688 42.88 58.24l60.992 25.152c18.56 10.368 53.376 6.144 70.528-10.944l31.296-31.424c9.728-9.728 27.136-9.728 36.864 0l52.288 52.224c10.112 10.176 10.112 26.752 0 36.928l-31.488 31.36c-17.792 17.728-22.464 49.152-10.56 71.488l25.024 60.8c7.168 23.168 32.832 41.984 57.92 41.984l44.352 0c14.336 0 25.984 11.712 25.984 26.048L980.992 336.928c0 14.4-11.712 26.048-25.984 26.048L910.72 362.976c-25.152 0-50.752 18.816-58.24 42.88l-25.152 60.928C816 488.032 820.544 519.456 838.4 537.312l31.488 31.424c10.112 10.176 10.112 26.752 0 36.928l-52.288 52.16c-9.728 9.792-27.136 9.792-36.864 0L749.248 626.4c-17.152-17.152-50.112-22.016-71.488-10.56l-60.736 24.96C593.792 647.968 574.976 673.504 574.976 698.72L574.976 743.072c0 14.4-11.712 26.048-26.048 26.048L475.136 769.12c-14.4 0-26.112-11.712-26.112-26.048L449.024 698.72c0-25.28-18.816-50.88-42.88-58.304L345.216 615.392C326.464 605.152 291.84 609.312 274.752 626.4L243.264 657.76c-9.792 9.856-27.008 9.856-36.8 0L154.24 605.6c-10.176-10.176-10.176-26.688 0-36.864L185.6 537.312c17.856-17.856 22.528-49.28 10.624-71.488L171.2 404.96C164.032 381.792 138.496 362.976 113.28 362.976l-44.288 0c-14.4 0-26.048-11.712-26.048-26.048l0-73.792c0-14.4 11.712-26.048 26.048-26.048L113.28 237.088c25.28-0.064 50.752-18.944 58.176-43.008l25.216-60.864c11.456-21.376 6.784-52.8-11.072-70.592l-31.424-31.296c-10.112-10.176-10.112-26.752 0-36.928l52.224-52.224c9.792-9.728 27.008-9.728 36.8 0l31.488 31.424C285.376-15.776 301.76-9.376 318.528-9.376L318.528-9.376zM512.128 104.608c-107.84 0-195.52 87.68-195.52 195.456 0 107.776 87.744 195.456 195.52 195.456 107.776 0 195.456-87.68 195.456-195.456C707.584 192.288 619.904 104.608 512.128 104.608L512.128 104.608zM512.128 473.76c-95.808 0-173.76-77.952-173.76-173.696 0-95.744 77.952-173.696 173.76-173.696 95.744 0 173.696 77.952 173.696 173.696C685.824 395.872 607.872 473.76 512.128 473.76L512.128 473.76z"  horiz-adv-x="1024" />

    
    <glyph glyph-name="02" unicode="&#58916;" d="M722.055 691.125c-89.793 0-169.909-49.429-210.04-125.049l-0.029 0c-40.131 75.62-120.262 125.049-210.041 125.049C171.293 691.125 65 586.491 65 457.891c0-62.408 8.803-126.417 77.076-210.229 66.526-81.615 354.515-325.355 369.561-338.16l0-0.626c0 0 0.262 0.219 0.364 0.306 0.087-0.087 0.364-0.306 0.364-0.306l0 0.626c15.017 12.805 303.035 256.545 369.532 338.16C950.197 331.474 959 395.482 959 457.891 959 586.491 852.707 691.125 722.055 691.125zM858.789 266.49c-53.532-65.712-259.543-243.697-345.174-316.785l-0.059 0.059-1.629-1.397C370.319 69.094 209.62 211.953 165.167 266.49c-64.94 79.724-70.368 138.262-70.368 191.4 0 112.172 92.921 203.435 207.145 203.435 77.57 0 147.967-41.848 183.718-109.218l26.308-49.574 26.337 49.574c35.78 67.37 106.191 109.218 183.747 109.218 114.224 0 207.146-91.263 207.146-203.435C929.2 404.752 923.758 346.214 858.789 266.49z"  horiz-adv-x="1024" />

    
    <glyph glyph-name="49" unicode="&#58989;" d="M505.859 746.957C259.034 743.567 61.653 540.699 65.043 293.859c3.39-246.825 206.258-444.207 453.098-440.816 246.825 3.391 444.207 206.258 440.816 453.098C955.566 552.966 752.699 750.347 505.859 746.957zM517.733-117.157C287.699-120.314 98 64.248 94.843 294.268 91.686 524.301 276.248 714 506.267 717.157c230.034 3.157 419.732-181.405 422.891-411.424C932.314 75.699 747.752-113.999 517.733-117.157zM619.167 512.398c-25.683 22.525-61.987 33.947-107.895 33.947-43.26 0-78.545-13.78-104.868-40.975-24.445-25.304-37.73-58.582-39.52-98.96l24.212 0c1.746 32.783 12.31 60.706 31.386 83.042 21.346 24.998 50.738 37.672 87.349 37.672 36.552 0 66.104-9.676 87.828-28.767 22.089-19.44 33.278-43.972 33.278-72.885 0-24.169-12.194-50.157-36.392-77.396-21.492-21.434-42.925-42.605-64.213-63.34-12.79-13.213-22.146-27.879-27.821-43.638-5.282-14.507-8.206-38.924-8.657-72.536l22.073 0c0.189 17.781 0.917 31.838 2.139 41.79 1.63 13.066 6.461 26.046 14.362 38.632 5.689 8.775 32.055 36.363 80.626 84.352 29.334 28.811 44.22 58.64 44.22 88.658C657.275 459.753 644.456 490.165 619.167 512.398zM503.168 109.501c-16.428 0-29.801-13.372-29.801-29.8 0-16.442 13.373-29.814 29.801-29.814s29.8 13.372 29.8 29.814C532.968 96.129 519.596 109.501 503.168 109.501z"  horiz-adv-x="1024" />

    
    <glyph glyph-name="guanbi" unicode="&#58980;" d="M944-135.2c-6.4 0-12.8 3.2-16 6.4L64 735.2C54.4 744.8 54.4 760.8 64 770.4s22.4 9.6 32 0l864-864c9.6-9.6 9.6-25.6 0-35.2C956.8-132 950.4-135.2 944-135.2zM80-135.2c-6.4 0-12.8 3.2-16 6.4-9.6 9.6-9.6 25.6 0 35.2l864 864c9.6 9.6 22.4 9.6 32 0s9.6-25.6 0-35.2l-864-864C92.8-132 86.4-135.2 80-135.2z"  horiz-adv-x="1024" />

    
    <glyph glyph-name="wujiaoxing" unicode="&#58914;" d="M536.831634 812 375.791901 468.259933 0 420.840781l276.270224-259.780848-71.226298-373.059933 331.787708 183.188185 331.787708-183.188185-71.226298 373.059933 276.270224 259.780848-375.791901 47.419152L536.831634 812z"  horiz-adv-x="1074" />

    
    <glyph glyph-name="aixin" unicode="&#58915;" d="M723.114667 684c-144.682667 0-211.541333-103.594667-211.541333-103.594667S441.130667 684 296.448 684c-144.682667 0-213.333333-139.605333-213.333333-256 0-116.394667 55.722667-311.808 428.458667-515.328 372.736 203.52 429.312 400.384 429.312 516.736C940.885333 545.802667 867.797333 684 723.114667 684z"  horiz-adv-x="1024" />

    
    <glyph glyph-name="weituangou" unicode="&#58882;" d="M500.436128-156.272791c-60.137659 0-118.484531 11.781324-173.418678 35.016515-53.05331 22.440082-100.697423 54.56064-141.608182 95.472422-40.910759 40.910759-73.03234 88.554872-95.471398 141.608182-23.236214 54.93517-35.016515 113.282043-35.016515 173.419701 0 60.138682 11.781324 118.485555 35.016515 173.419701 22.440082 53.05331 54.56064 100.697423 95.471398 141.608182 40.910759 40.910759 88.555895 73.03234 141.608182 95.472422 54.934147 23.235191 113.281019 35.016515 173.418678 35.016515 60.138682 0 118.485555-11.781324 173.420725-35.016515 53.05331-22.440082 100.697423-54.561663 141.608182-95.472422 40.910759-40.910759 73.03234-88.554872 95.472422-141.608182 23.235191-54.934147 35.016515-113.281019 35.016515-173.419701 0-60.137659-11.781324-118.485555-35.016515-173.419701-22.440082-53.05331-54.56064-100.697423-95.472422-141.608182C774.554276-66.695636 726.90914-98.817218 673.856853-121.256276 618.921683-144.491467 560.57481-156.272791 500.436128-156.272791zM500.436128 707.494854c-230.624565 0-418.250826-187.626261-418.250826-418.251849s187.626261-418.250826 418.250826-418.250826S918.687978 58.618441 918.687978 289.244029 731.060693 707.494854 500.436128 707.494854zM612.933295 693.361973l30.915104 0 0-812.660664-30.915104 0 0 812.660664ZM75.493903 393.678566l840.016709 0 0-30.91408-840.016709 0 0 30.91408ZM199.211623-20.987618c0 0 306.678728 125.419478 418.467767 383.752104"  horiz-adv-x="1024" />

    
    <glyph glyph-name="iconpaimai01" unicode="&#58898;" d="M951.779142-26.497099 610.890264 331.826869c-8.112772 8.527211-7.972579 21.960151 0.315178 30.316469l20.296255 20.464077c4.169973 4.204765 9.873882 6.52767 15.794731 6.433526l53.737902-0.857531c5.929036-0.094144 11.639085 2.234901 15.810081 6.448876l65.120137 65.789379c8.392134 8.478092 8.392134 22.13309 0 30.611182L543.358195 732.087972c-8.513908 8.600889-22.410406 8.601912-30.925337 0l-64.85203-65.514109c-4.110621-4.152577-6.378268-9.784854-6.29231-15.626909l0.808412-54.82056c0.085958-5.842055-2.181689-11.474332-6.29231-15.626909L240.580311 383.274612c-4.086062-4.128017-9.653871-6.450922-15.462157-6.450922l-55.271838 0c-5.808286 0-11.376095-2.322905-15.462157-6.450922l-64.126506-64.782446c-8.392134-8.478092-8.392134-22.13309 0-30.611182l238.611469-241.057171c8.513908-8.600889 22.410406-8.601912 30.925337 0l64.953338 65.617463c4.118807 4.161786 6.387477 9.807367 6.291287 15.661701l-0.892323 54.567803c-0.096191 5.909593 2.215458 11.604292 6.40385 15.774265l33.881668 33.733289c8.435113 8.398274 22.053272 8.458649 30.563086 0.1361l352.797092-345.047594c2.948145-2.883677 6.655584-4.869914 10.689457-5.727445l42.86425-9.110495c7.245008-1.540076 14.775518 0.712221 19.986193 5.976108l32.592302 32.927947c5.030573 5.081739 7.241938 12.311397 5.916756 19.337417l-8.443299 44.771693C956.61938-33.341994 954.668958-29.534272 951.779142-26.497099zM899.516848-100.173099l-24.212448 5.857405c-3.934612 0.951675-7.526417 2.982938-10.370185 5.864568L506.644015 274.61689c-8.509814 8.623401-22.424732 8.634658-30.947849 0.023536l-75.898621-76.67531c-4.163833-4.205788-6.434549-9.927093-6.287193-15.84385l0.735757-29.724998c0.146333-5.916756-2.12336-11.637038-6.287193-15.842827l-40.401152-40.817638c-8.513908-8.601912-22.411429-8.601912-30.925337 0L151.445224 262.613508c-8.392134 8.478092-8.392134 22.132066-0.001023 30.611182l39.653115 40.062438c4.086062 4.129041 9.653871 6.451946 15.46318 6.451946l30.792307 0c5.808286 0 11.376095 2.322905 15.462157 6.450922l219.633233 221.87939c4.15053 4.192485 6.420223 9.891278 6.28924 15.788591l-0.664126 29.907147c-0.130983 5.898337 2.13871 11.596106 6.28924 15.788591l40.307008 40.7194c8.513908 8.600889 22.410406 8.600889 30.925337 0l165.187203-166.877705c8.392134-8.478092 8.392134-22.13309 0-30.611182l-40.575114-40.9916c-4.214998-4.257977-9.998725-6.589069-15.988136-6.444782l-29.04143 0.700965c-5.989411 0.144286-11.772115-2.186805-15.987113-6.444782l-63.902402-64.554248c-8.394181-8.480138-8.392134-22.13923 0.005117-30.617321l360.270297-363.710652c3.03001-3.059686 5.084808-6.949272 5.903453-11.17655l4.696975-24.267706c1.373277-7.094582-0.865717-14.408151-5.976108-19.518542l-0.169869-0.169869C914.654616-99.772986 906.887722-101.956721 899.516848-100.173099zM70.050426-82.675586l337.549829 0c7.101745 0 12.858866-5.757121 12.858866-12.858866l0-26.564006c0-7.101745-5.757121-12.858866-12.858866-12.858866L70.050426-134.957323c-7.101745 0-12.858866 5.757121-12.858866 12.858866l0 26.564006C57.19156-88.432707 62.948681-82.675586 70.050426-82.675586z"  horiz-adv-x="1024" />

    
    <glyph glyph-name="fenxiang" unicode="&#58939;" d="M836.061867 743.8016c-75.400533 0-136.533333-61.149867-136.533333-136.533333 0-13.090133 1.9456-25.719467 5.376-37.700267l-398.8992-167.304533c-23.6032 40.891733-67.669333 68.471467-118.237867 68.471467-75.383467 0-136.533333-61.149867-136.533333-136.618667 0-75.656533 61.149867-136.789333 136.533333-136.789333 39.492267 0 75.008 16.878933 99.925333 43.7248l257.109333-184.849067c-10.001067-19.012267-15.7184-40.6528-15.7184-63.6416 0-75.4176 60.893867-136.5504 136.277333-136.5504s136.533333 61.1328 136.533333 136.5504c0 75.383467-61.149867 136.516267-136.533333 136.516267-40.106667 0-76.066133-17.425067-100.9664-44.9536l-256.682667 184.541867c10.564267 19.421867 16.571733 41.728 16.571733 65.450667 0 12.7488-1.860267 25.002667-5.102933 36.6592l399.2064 167.441067c23.722667-40.328533 67.464533-67.498667 117.6576-67.498667 75.400533 0 136.533333 61.1328 136.533333 136.5504C972.5952 682.651733 911.4624 743.8016 836.061867 743.8016zM665.3952 94.926933c56.4736 0 102.4-45.9264 102.4-102.382933 0-56.4736-45.9264-102.417067-102.4-102.417067s-102.314667 45.943467-102.314667 102.417067C563.080533 49.000533 608.938667 94.926933 665.3952 94.926933zM187.784533 231.460267c-56.4736 0-102.4 45.9264-102.4 102.656 0 56.541867 45.9264 102.485333 102.4 102.485333s102.4-45.9264 102.4-102.485333C290.184533 277.403733 244.258133 231.460267 187.784533 231.460267zM836.061867 504.8512c-56.4736 0-102.4 45.943467-102.4 102.417067s45.9264 102.4 102.4 102.4 102.4-45.9264 102.4-102.4S892.535467 504.8512 836.061867 504.8512z"  horiz-adv-x="1024" />

    
    <glyph glyph-name="jiantou" unicode="&#58930;" d="M591.552-207.072 54.72 299.04 591.488 807.136 624.512 772.256 124.608 299.104 624.448-172.192Z"  horiz-adv-x="1024" />

    
    <glyph glyph-name="tuoguan" unicode="&#58995;" d="M962.151885 311.973706c0 0-36.836977 4.604878-79.81379-19.953448 0 0-1.444908 47.036269-48.603975 48.604998 0 0-36.683481 7.54586-77.256548-39.600927 0 0-8.102538 64.12753-73.1623 29.879518l-120.743992-65.999157c0 0 91.755774 1.180895 122.278951-0.511653 22.442128-1.24434 57.733912-6.176676 59.34869-67.535139 0.889253-33.799804-24.810059-85.315084-99.767238-89.022523l-195.952904 0c0 0-84.517929 45.4921-107.669208 71.396073 0 0 84.039022-37.670971 124.041084-43.767829 0 0 152.089907 0.857531 196.977233 0 55.838749-1.066285 82.44471 97.17111 4.602831 99.768261-0.002047 0-154.431232-3.37998-196.97621 27.115568 0 0-138.13815 97.208972-197.999516 104.883769 0 0-46.046732 3.069919-90.557482-16.883529L12.060175 273.600747l108.97597-243.649206c0 0 89.023546 76.346829 136.605238 48.718585l224.091778-113.580848c0 0 44.51075-26.092261 96.697319 0l412.883585 279.348266C1010.691391 259.579405 1012.738004 305.287423 962.151885 311.973706zM985.271442 256.167702 570.201052-23.390341c-44.962028-22.479991-83.309404 0-83.309404 0L247.240499 98.178435c-41.727357 15.408945-120.762411-45.043892-120.762411-45.043892l-94.91165 212.985836L193.40129 337.356816c38.3484 17.191544 81.08883 13.522991 81.08883 13.522991 51.573609-6.611581 193.099926-105.286951 193.099926-105.286951 40.434921-24.899086 195.22431-22.826891 195.22431-22.826891 63.218834 1.338485 40.735773-74.083276 3.197832-74.746378-38.674834-0.682545-194.202027 0-194.202027 0-33.059953 2.645247-163.268504 54.108339-163.268504 54.108339 33.92874-58.011228 137.417743-104.405885 137.417743-104.405885l212.291011 0c76.82062 7.509021 100.856036 69.124334 99.16451 105.23374-2.90926 62.130036-43.665499 72.040756-68.902276 74.360592l-81.181951 0 91.051739 47.796586c53.06252 20.083407 47.093575-50.183959 47.093575-50.183959 63.787792 74.814939 106.423845 50.142004 106.423845 50.142004 25.411763-18.760273 16.714683-52.529377 16.714683-52.529377 37.027311 21.157879 64.846914 30.593785 88.004333 29.335119C991.113497 300 998.410694 269.812467 985.271442 256.167702zM532.992615 656.775706c-89.007173 0-161.16254-72.155367-161.16254-161.16254S443.985442 334.450626 532.992615 334.450626s161.16254 72.155367 161.16254 161.16254S622.000811 656.775706 532.992615 656.775706zM532.992615 346.729278c-82.226746 0-148.883889 66.658166-148.883889 148.883889S450.766892 644.497055 532.992615 644.497055s148.883889-66.658166 148.883889-148.883889S615.219361 346.729278 532.992615 346.729278zM542.86138 484.253444 627.169531 580.066627 605.824387 580.066627 535.390221 498.126406 464.955032 580.066627 445.746552 580.066627 526.852778 485.320753 526.852778 484.836729 454.283995 484.836729 454.283995 470.963767 526.852778 470.963767 526.852778 433.608997 453.910489 433.608997 453.910489 422.864282 526.852778 422.864282 526.852778 378.952166 542.86138 378.952166 542.86138 422.864282 615.073028 422.864282 615.073028 433.608997 542.86138 433.608997 542.86138 470.963767 615.430162 470.963767 615.430162 484.836729 542.86138 484.836729Z"  horiz-adv-x="1024" />

    
    <glyph glyph-name="remenzhuanti" unicode="&#58899;" d="M823.4496-212 200.5504-212C89.9584-212 0-122.0416 0-11.4496L0 611.4496C0 722.0416 89.9584 812 200.5504 812l622.9504 0C934.0416 812 1024 722.0416 1024 611.4496l0-622.9504C1024-122.0416 934.0416-212 823.4496-212zM200.5504 774.9824c-90.1632 0-163.5328-73.3696-163.5328-163.5328l0-622.9504c0-90.1632 73.3696-163.5328 163.5328-163.5328l622.9504 0c90.1632 0 163.5328 73.3696 163.5328 163.5328L987.0336 611.4496c0 90.1632-73.3696 163.5328-163.5328 163.5328L200.5504 774.9824zM343.8592 121.9776c-3.7888 0-7.6288 1.1776-10.8544 3.5328-6.5024 4.7104-9.216 13.056-6.7072 20.6848l62.976 193.792L224.4096 459.744c-6.5024 4.7104-9.216 13.056-6.7072 20.6848 2.4576 7.6288 9.5744 12.8 17.6128 12.8l203.7248 0 62.976 193.792c2.4576 7.6288 9.5744 12.8 17.6128 12.8l0 0c8.0384 0 15.1552-5.1712 17.6128-12.8l62.976-193.792 203.7248 0c8.0384 0 15.1552-5.1712 17.6128-12.8 2.4576-7.6288-0.2048-15.9744-6.7072-20.6848l-164.8128-119.7568 62.976-193.792c2.4576-7.6288-0.2048-15.9744-6.7072-20.6848-6.4512-4.7104-15.2576-4.7104-21.76 0l-164.864 119.7568-164.864-119.7568C351.488 123.1552 347.648 121.9776 343.8592 121.9776zM292.2496 456.2112l129.6384-94.1568c6.5024-4.7104 9.216-13.056 6.7072-20.6848l-49.5104-152.4224 129.6384 94.208c6.4512 4.7104 15.2576 4.7104 21.76 0l129.6384-94.1568-49.5104 152.3712c-2.4576 7.6288 0.2048 15.9744 6.7072 20.6848l129.6384 94.1568-160.2048 0c-8.0384 0-15.1552 5.1712-17.6128 12.8l-49.5104 152.4224L470.0672 469.0112c-2.4576-7.6288-9.5744-12.8-17.6128-12.8L292.2496 456.2112zM1005.5168-29.984 18.4832-29.984c-10.24 0-18.4832 8.2944-18.4832 18.4832 0 10.24 8.2944 18.4832 18.4832 18.4832l986.9824 0c10.24 0 18.4832-8.2944 18.4832-18.4832C1024-21.6896 1015.7056-29.984 1005.5168-29.984zM512-59.9872 519.2192-82.2592 542.5664-82.2592 523.6736-95.9808 530.8928-118.2016 512-104.48 493.056-118.2016 500.3264-95.9808 481.3824-82.2592 504.7808-82.2592ZM432.384-110.6752 224.6656-110.6752c-6.8096 0-12.3392 5.5296-12.3392 12.3392s5.5296 12.3392 12.3392 12.3392l207.7184 0c6.8096 0 12.3392-5.5296 12.3392-12.3392S439.1936-110.6752 432.384-110.6752zM799.3344-110.6752l-207.7184 0c-6.8096 0-12.3392 5.5296-12.3392 12.3392s5.5296 12.3392 12.3392 12.3392l207.7184 0c6.8096 0 12.3392-5.5296 12.3392-12.3392S806.144-110.6752 799.3344-110.6752z"  horiz-adv-x="1024" />

    
    <glyph glyph-name="rili" unicode="&#58921;" d="M275.585-90.323c-75.753 0-144.754 65.865-144.754 138.177v396.167c0 73.359 64.124 135.337 140.026 135.337 12.205 0 22.13-9.926 22.13-22.13 0-12.205-9.926-22.13-22.13-22.13-51.906 0-95.758-41.705-95.758-91.074v-396.167c0-48.275 48.832-93.919 100.489-93.919h509.392c46.545 0 81.643 40.372 81.643 93.919v396.167c0 51.071-38.979 91.074-88.745 91.074-12.202 0-22.13 9.926-22.13 22.13 0 12.202 9.926 22.13 22.13 22.13 74.581 0 133.002-59.44 133.002-135.337v-396.167c0-78.778-54.129-138.177-125.906-138.177h-509.392zM300.11 314.367c-12.202 0-22.13 9.926-22.13 22.13s9.926 22.13 22.13 22.13h55.182c12.205 0 22.13-9.926 22.13-22.13s-9.926-22.13-22.13-22.13h-55.182zM484.053 314.367c-12.205 0-22.13 9.926-22.13 22.13s9.926 22.13 22.13 22.13h55.182c12.205 0 22.13-9.926 22.13-22.13s-9.926-22.13-22.13-22.13h-55.182zM686.403 314.367c-12.197 0-22.13 9.926-22.13 22.13s9.934 22.13 22.13 22.13h55.182c12.205 0 22.131-9.926 22.131-22.13s-9.926-22.13-22.131-22.13h-55.182zM300.11 203.997c-12.202 0-22.13 9.926-22.13 22.131s9.926 22.13 22.13 22.13h55.182c12.205 0 22.13-9.926 22.13-22.13 0-12.205-9.926-22.131-22.13-22.131h-55.182zM484.053 203.997c-12.205 0-22.13 9.926-22.13 22.131s9.926 22.13 22.13 22.13h55.182c12.205 0 22.13-9.926 22.13-22.13 0-12.205-9.926-22.131-22.13-22.131h-55.182zM686.403 203.997c-12.197 0-22.13 9.926-22.13 22.131s9.934 22.13 22.13 22.13h55.182c12.205 0 22.131-9.926 22.131-22.13 0-12.205-9.926-22.131-22.131-22.131h-55.182zM300.11 93.623c-12.202 0-22.13 9.926-22.13 22.131s9.926 22.13 22.13 22.13h55.182c12.205 0 22.13-9.926 22.13-22.13 0-12.205-9.926-22.131-22.13-22.131h-55.182zM484.053 93.623c-12.205 0-22.13 9.926-22.13 22.131s9.926 22.13 22.13 22.13h55.182c12.205 0 22.13-9.926 22.13-22.13 0-12.205-9.926-22.131-22.13-22.131h-55.182zM686.403 93.623c-12.197 0-22.13 9.926-22.13 22.131s9.934 22.13 22.13 22.13h55.182c12.205 0 22.131-9.926 22.131-22.13 0-12.205-9.926-22.131-22.131-22.131h-55.182zM263.315 535.103c-12.205 0-22.13 9.926-22.13 22.13s9.926 22.13 22.13 22.13h496.665c12.205 0 22.131-9.926 22.131-22.13 0-12.205-9.926-22.13-22.131-22.13h-496.665zM355.296 479.921c-12.202 0-22.13 9.926-22.13 22.13v110.375c0 12.202 9.926 22.13 22.13 22.13 12.205 0 22.13-9.926 22.13-22.13v-110.375c0-12.205-9.925-22.13-22.13-22.13zM686.403 479.921c-12.197 0-22.13 9.926-22.13 22.13v110.375c0 12.202 9.934 22.13 22.13 22.13 12.205 0 22.131-9.926 22.131-22.13v-110.375c0-12.205-9.926-22.13-22.131-22.13z"  horiz-adv-x="1024" />

    
    <glyph glyph-name="back" unicode="&#58952;" d="M363.840919 339.021263C336.938714 314.641139 337.301807 274.513862 364.730379 250.513862L673.951902-20.05497C682.818816-27.813519 696.296418-26.915012 704.05497-18.048098 711.813519-9.181184 710.915012 4.296418 702.048098 12.05497L392.826577 282.623802C384.59578 289.825747 384.502227 300.164713 392.492414 307.40582L702.325747 588.192277C711.056111 596.104171 711.719614 609.595384 703.807723 618.325748 695.895829 627.056111 682.404617 627.719614 673.674253 619.807722L363.840919 339.021263Z"  horiz-adv-x="1024" />

    
    <glyph glyph-name="less" unicode="&#58953;" d="M509.927514 424.840919C517.168621 432.831106 527.507586 432.737553 534.709532 424.506756L805.278364 115.285235C813.036915 106.418321 826.514517 105.519814 835.381431 113.278364 844.248346 121.036915 845.146852 134.514517 837.388303 143.381431L566.819471 452.602955C542.819471 480.031526 502.692194 480.39462 478.31207 453.492414L197.525612 143.659081C189.61372 134.928717 190.277222 121.437504 199.007586 113.525611 207.737949 105.613719 221.229163 106.277222 229.141056 115.007586L509.927514 424.840919Z"  horiz-adv-x="1024" />

    
    <glyph glyph-name="moreunfold" unicode="&#58954;" d="M478.31207 167.840919C502.692194 140.938714 542.819471 141.301807 566.819471 168.730379L837.388303 477.951902C845.146852 486.818816 844.248346 500.296418 835.381431 508.05497 826.514517 515.813519 813.036915 514.915012 805.278364 506.048098L534.709532 196.826577C527.507586 188.59578 517.168621 188.502227 509.927514 196.492414L229.141056 506.325747C221.229163 515.056111 207.737949 515.719614 199.007586 507.807723 190.277222 499.895829 189.61372 486.404617 197.525612 477.674253L478.31207 167.840919Z"  horiz-adv-x="1024" />

    
    <glyph glyph-name="more" unicode="&#58955;" d="M642.174253 307.40582C650.164439 300.164713 650.070886 289.825747 641.84009 282.623802L332.618569 12.05497C323.751654 4.296418 322.853148-9.181184 330.611697-18.048098 338.370249-26.915012 351.847851-27.813519 360.714765-20.05497L669.936288 250.513862C697.36486 274.513862 697.727953 314.641139 670.825747 339.021263L360.992414 619.807722C352.26205 627.719614 338.770837 627.056111 330.858944 618.325748 322.947053 609.595384 323.610556 596.104171 332.340919 588.192277L642.174253 307.40582Z"  horiz-adv-x="1024" />

    
    <glyph glyph-name="viewlist" unicode="&#58904;" d="M146.571481 762.048781 347.295185 762.048781C388.825594 762.048781 422.4 728.54407 422.4 686.941234L422.4 462.52218C422.4 421.022859 388.764036 387.414635 347.295185 387.414635L146.571481 387.414635C105.041073 387.414635 71.466667 420.919345 71.466667 462.52218L71.466667 686.941234C71.466667 728.440555 105.10263 762.048781 146.571481 762.048781ZM21.333333 462.52218C21.333333 393.349489 77.335661 337.463415 146.571481 337.463415L347.295185 337.463415C416.483543 337.463415 472.533333 393.466982 472.533333 462.52218L472.533333 686.941234C472.533333 756.113925 416.531006 812 347.295185 812L146.571481 812C77.383122 812 21.333333 755.996433 21.333333 686.941234L21.333333 462.52218ZM146.571481 212.585365 347.295185 212.585365C388.825594 212.585365 422.4 179.080655 422.4 137.47782L422.4-86.941233C422.4-128.440555 388.764036-162.048781 347.295185-162.048781L146.571481-162.048781C105.041073-162.048781 71.466667-128.54407 71.466667-86.941233L71.466667 137.47782C71.466667 178.977141 105.10263 212.585365 146.571481 212.585365ZM21.333333-86.941233C21.333333-156.113924 77.335661-212 146.571481-212L347.295185-212C416.483543-212 472.533333-155.996433 472.533333-86.941233L472.533333 137.47782C472.533333 206.650511 416.531006 262.536585 347.295185 262.536585L146.571481 262.536585C77.383122 262.536585 21.333333 206.533018 21.333333 137.47782L21.333333-86.941233ZM998.933333 662.146342C1012.777271 662.146342 1024 673.328303 1024 687.121951 1024 700.9156 1012.777271 712.097561 998.933333 712.097561L572.8 712.097561C558.956062 712.097561 547.733333 700.9156 547.733333 687.121951 547.733333 673.328303 558.956062 662.146342 572.8 662.146342L998.933333 662.146342ZM998.933333 537.268292C1012.777271 537.268292 1024 548.450255 1024 562.243902 1024 576.037551 1012.777271 587.219511 998.933333 587.219511L572.8 587.219511C558.956062 587.219511 547.733333 576.037551 547.733333 562.243902 547.733333 548.450255 558.956062 537.268292 572.8 537.268292L998.933333 537.268292ZM998.933333 412.390244C1012.777271 412.390244 1024 423.572205 1024 437.365854 1024 451.159503 1012.777271 462.341463 998.933333 462.341463L572.8 462.341463C558.956062 462.341463 547.733333 451.159503 547.733333 437.365854 547.733333 423.572205 558.956062 412.390244 572.8 412.390244L998.933333 412.390244ZM998.933333 137.658537C1012.777271 137.658537 1024 148.840497 1024 162.634146 1024 176.427795 1012.777271 187.609756 998.933333 187.609756L572.8 187.609756C558.956062 187.609756 547.733333 176.427795 547.733333 162.634146 547.733333 148.840497 558.956062 137.658537 572.8 137.658537L998.933333 137.658537ZM998.933333 12.780489C1012.777271 12.780489 1024 23.962449 1024 37.756098 1024 51.549745 1012.777271 62.731708 998.933333 62.731708L572.8 62.731708C558.956062 62.731708 547.733333 51.549745 547.733333 37.756098 547.733333 23.962449 558.956062 12.780489 572.8 12.780489L998.933333 12.780489ZM998.933333-112.097562C1012.777271-112.097562 1024-100.915599 1024-87.121952 1024-73.328303 1012.777271-62.146342 998.933333-62.146342L572.8-62.146342C558.956062-62.146342 547.733333-73.328303 547.733333-87.121952 547.733333-100.915599 558.956062-112.097562 572.8-112.097562L998.933333-112.097562Z"  horiz-adv-x="1024" />

    
    <glyph glyph-name="genggaizhuti" unicode="&#58962;" d="M692.893418-52.939331 327.253834-52.939331c-23.36515 0-42.354644 18.98847-42.354644 42.354644L284.89919 341.766242l-43.095517-44.50768c-15.600303-16.129352-43.765783-16.624632-59.878762-1.093914L74.257749 400.215446c-8.117888 7.800663-12.706393 18.35402-12.882402 29.718859-0.212848 11.330046 4.006244 22.023596 11.841699 30.142507l169.257915 175.205371c22.236444 23.01211 30.777981 23.01211 34.872229 23.01211L383.937834 658.294292c27.741831 0 32.223912-1.941212 37.201274-7.094582l5.328355-5.542226-0.245593-7.800663c0-43.801599 34.483372-74.296123 83.860966-74.296123 49.342802 0 83.826174 30.494525 83.826174 74.120115l0 7.306406 5.100158 6.211469c4.959965 5.15337 9.442046 7.094582 37.183877 7.094582l106.590644 0c4.130064 0 12.706393 0 34.872229-23.01211l169.276335-175.205371c7.835456-8.117888 12.035104-18.812461 11.859096-30.142507-0.211824-11.329023-4.782933-21.918195-12.900821-29.753651L838.222341 296.200464c-7.906064-7.658424-18.35402-11.859096-29.399587-11.859096l0 0c-11.43647 0-22.553669 4.694929-30.460756 12.883425l-43.024909 44.542472-0.106424-352.351953C735.230666-33.951885 716.242196-52.939331 692.893418-52.939331zM295.910988 392.767823c12.106736 0 25.130354-9.530051 25.130354-30.495548l0-372.857986c0-3.353374 2.841721-6.212492 6.212492-6.212492l365.640608 0.001023c3.40761 0 6.195096 2.788509 6.195096 6.211469L699.089537 362.272275c0 20.965497 13.025665 30.495548 25.130354 30.495548 5.506411 0 13.942547-1.941212 22.801309-11.082406l57.319473-59.331293c3.036149-3.140527 5.611811-3.211135 8.788154-0.176009l107.650789 104.014982c1.588171 1.517563 1.853208 3.388167 1.870604 4.340865 0 0.98749-0.194428 2.859118-1.728364 4.447289L751.643474 610.186621c-5.471618 5.682419-10.377348 9.847276-13.164834 11.964496L636.193045 622.151118c-2.717901 0-5.152347-0.034792-7.342222-0.106424-8.029884-56.225559-55.519478-94.626147-118.767987-94.626147-63.724347 0-111.426789 38.966477-118.945019 94.661963-2.153036 0.034792-4.552689 0.069585-7.199982 0.069585l-102.286618 0c-2.788509-2.117221-7.694239-6.282077-13.199627-11.964496L99.211071 434.981251c-1.517563-1.588171-1.729387-3.459798-1.710968-4.447289 0.017396-0.952698 0.282433-2.823302 1.853208-4.340865l107.685581-104.014982c3.140527-3.035126 5.718235-3.000334 8.770757 0.176009l57.284681 59.296501C281.970488 390.826612 290.405601 392.767823 295.910988 392.767823z"  horiz-adv-x="1024" />

    
    <glyph glyph-name="clothes" unicode="&#59056;" d="M310.56005953-11.240416780000032c-27.49320443 0-49.86139748 22.36713731-49.86139748 49.86139747L260.69866102 418.94257971l-41.98960168-43.36563478c-9.01338577-9.31858473-22.12847024-14.66430952-35.98384504-14.66536525-13.29672437 0-25.54901621 4.75222481-34.50326334 13.38120889L29.59374964 488.93651379c-9.57098047 9.1971392-14.9610595 21.62684697-15.16910102 34.99221469-0.24817178 13.30306084 4.70259087 25.90701734 13.94302756 35.47905354l186.48680154 193.03959143c25.44235509 26.33049255 35.3808414 26.33049255 40.71917295 26.33049255l117.44120137 0c30.22942943 0 36.70829524-1.9800935 43.286431-8.7916156l6.80940959-7.08187048-0.31364689-9.93954204c0.00105574-22.63009453 8.54978029-42.21242759 24.72212885-56.53352142 16.04351084-14.20598374 38.94184125-22.02814558 64.48135276-22.02814559 52.4983546 0 89.1622956 32.26866159 89.1622956 78.46873455l0 9.19397098 6.42500789 7.82638582 0.08765171 0.09081995c6.55912635 6.81469033 13.03376819 8.79583956 43.27058983 8.79583956l117.44014461 0c5.36684566 0 15.35813415 0 40.72445368-26.33260505l186.50264272-193.03536746c9.21086787-9.54457887 14.17007846-22.14325464 13.96309268-35.48010928-0.25028428-13.38120888-5.64458728-25.81830886-15.18916615-35.03234496L875.75587139 374.33397457c-9.29218312-9.0038821-21.5867167-13.96520415-34.60992445-13.96520415-13.4804778 0-26.55120699 5.53158969-35.85923128 15.17226924l-41.91250937 43.38992389-0.11405332-380.30998286c0-27.49320443-22.35974512-49.86034174-49.84344485-49.86034174L310.56005953-11.23936002000005 310.56005953-11.240416780000032zM276.0282821 486.22457789c14.87446352 0 30.88418056-11.51411194 30.88418056-36.79489226l0-410.80870494c0-1.94524396 1.70552115-3.64759687 3.64865261-3.64759687l402.85559285 0.00105574c2.00227114 0 3.62964321 1.63582103 3.62964322 3.64654011L717.04635134 449.42968563c0 25.28183502 16.0086613 36.79489225 30.88418055 36.79489226 6.67951614 0 16.85666952-2.28634819 27.41611212-13.18161531l63.15812287-65.37371522c1.04337783-1.0792831 1.95897263-1.67489557 2.57887422-1.67489558 0.61462085 0 1.53760889 0.55759471 2.59682684 1.56929019l118.59546327 114.58986628c0.92087554 0.88074526 1.07505913 1.9727013 1.0866753 2.54613613-0.00105574 1.02436843-0.34110423 1.92623559-1.00958402 2.61900346L775.8461558 720.35718457c-6.08812762 6.32573897-11.06845908 10.45172573-13.29778113 12.20688082l-111.60335699 0c-1.92095486 0-3.68455789-0.01584117-5.33622009-0.04752247-10.23840453-62.52343586-63.58054235-104.32717264-133.61038171-104.32717264-35.02389599 0-66.40442011 10.31866405-90.74848269 29.839747-23.53196067 18.86950007-38.38319082 44.5811478-43.07416448 74.49904284-1.6125887 0.02217661-3.33394999 0.03696204-5.16302813 0.03696204l-111.60335699 0c-2.22404132-1.75093113-7.19381234-5.86530172-13.34107861-12.21004906L61.60579151 527.3197046c-0.8839135-0.92404377-1.00007932-2.03923214-0.98846315-2.62217168 0.01056044-0.57343484 0.16263153-1.66855911 1.06661016-2.54191218l118.64509824-114.60148244c1.04971326-1.01486373 1.96214086-1.57245842 2.56831377-1.57245842 0.61567761 0 1.52704845 0.59772395 2.56936951 1.68334351l63.12116084 65.33780891C259.16316464 483.9308375 269.34559876 486.22457789 276.0282821 486.22457789z"  horiz-adv-x="1024" />

    
    <glyph glyph-name="money" unicode="&#58940;" d="M511.482719 749.579345c-246.954485 0-448.728978-202.227818-448.728978-449.754331 0-247.52549 201.774493-449.753307 448.728978-449.753307 246.955508 0 448.699302 202.227818 448.699302 449.753307C960.182021 547.351528 759.520885 749.579345 511.482719 749.579345L511.482719 749.579345zM511.482719-105.728628c-222.710314 0-404.632667 181.233668-404.632667 405.553643 0 224.320998 181.922353 405.554666 404.632667 405.554666 222.680639 0 404.604014-182.331675 404.604014-405.554666S735.276714-105.728628 511.482719-105.728628L511.482719-105.728628zM511.482719-105.728628M702.12057 558.770602 562.802548 322.576181l109.803825 0 0-52.192709L544.676725 270.383472l0-71.928193 127.929648 0 0-52.852742L544.676725 145.602537l0-104.722086-65.793472 0L478.883253 145.602537l-132.640949 0 0 52.852742 132.640949 0 0 71.928193-132.640949 0 0 52.192709 113.139803 0L321.411779 558.770602l74.196863 0c64.476477-117.313869 103.624079-191.70209 117.504204-223.150336l1.346671 0c4.714372 12.941753 17.569144 39.030945 38.621623 78.298274l78.882582 144.852062L702.12057 558.770602 702.12057 558.770602z"  horiz-adv-x="1024" />

    
    <glyph glyph-name="xiangziline" unicode="&#58900;" d="M961.556321 549.244644 496.528122 751.265754c-3.824095 1.659803-8.170077 1.630127-11.970636-0.081864L61.458235 560.435521c-5.301749-2.390443-8.710382-7.66661-8.710382-13.482059l0-474.394521c0-5.696746 3.272533-10.887978 8.413624-13.343913l438.833607-209.644741c2.015913-0.962931 4.195555-1.443885 6.374174-1.443885 2.219551 0 4.438079 0.499373 6.483668 1.497097l449.294866 219.173768c5.080715 2.479471 8.30413 7.637957 8.30413 13.290701L970.451922 535.681744C970.451922 541.570871 966.957331 546.899226 961.556321 549.244644zM490.746442 721.530522 924.243507 533.208413 511.519558 356.014758l-422.716534 181.524287c-1.25662 0.539282-2.545986 0.874927-3.837398 1.050935L490.746442 721.530522zM82.323449 508.133318l414.407288-177.956018 0-446.26895L82.323449 81.883307 82.323449 508.133318zM526.306332-110.905534 526.306332 330.1773l414.56897 177.985694 0-416.83457L526.306332-110.905534zM376.482025 280.973668l-168.723749 72.532967c-7.504928 3.229554-16.200984-0.2415-19.426445-7.745405-3.225461-7.502881 0.242524-16.19996 7.745405-19.425422l168.723749-72.532967c1.904373-0.819668 3.88447-1.206478 5.833869-1.206478 5.731538 0 11.18576 3.352351 13.5936 8.951883C387.452891 269.051127 383.98593 277.74923 376.482025 280.973668z"  horiz-adv-x="1024" />

    
    <glyph glyph-name="41" unicode="&#58920;" d="M117.438713 408.062158c-58.691727 0-106.246813-47.604204-106.246813-106.336864 0-58.715263 47.555086-106.334817 106.246813-106.334817 58.654888 0 106.247836 47.619554 106.247836 106.334817C223.686549 360.458977 176.093601 408.062158 117.438713 408.062158zM117.438713 230.831664c-39.08211 0-70.834278 31.792077-70.834278 70.894653 0 39.1036 31.752168 70.8967 70.834278 70.8967 39.046295 0 70.830185-31.792077 70.830185-70.8967C188.268898 262.623741 156.485007 230.831664 117.438713 230.831664zM905.451 408.062158c-58.690704 0-106.246813-47.604204-106.246813-106.336864 0-58.715263 47.556109-106.334817 106.246813-106.334817 58.653865 0 106.246813 47.619554 106.246813 106.334817C1011.698836 360.458977 964.105888 408.062158 905.451 408.062158zM905.451 230.831664c-39.048341 0-70.832232 31.792077-70.832232 70.894653 0 39.1036 31.783891 70.8967 70.832232 70.8967 39.045271 0 70.829162-31.792077 70.829162-70.8967C976.280162 262.623741 944.497295 230.831664 905.451 230.831664zM511.447415 408.062158c-58.69275 0-106.247836-47.604204-106.247836-106.336864 0-58.715263 47.556109-106.334817 106.247836-106.334817 58.656935 0 106.245789 47.619554 106.245789 106.334817C617.692181 360.458977 570.103326 408.062158 511.447415 408.062158zM511.447415 230.831664c-39.046295 0-70.833255 31.792077-70.833255 70.894653 0 39.1036 31.78696 70.8967 70.833255 70.8967 39.047318 0 70.831208-31.792077 70.831208-70.8967C582.2776 262.623741 550.493709 230.831664 511.447415 230.831664z"  horiz-adv-x="1024" />

    
    <glyph glyph-name="tuandui" unicode="&#58975;" d="M508.791484 284.286255C615.808793 284.286255 702.886029 371.344873 702.886029 478.362182 702.886029 585.323636 615.808793 672.363636 508.791484 672.363636 401.830029 672.363636 314.808648 585.323636 314.808648 478.362182 314.808648 371.344873 401.830029 284.286255 508.791484 284.286255L508.791484 284.286255ZM508.791484 644.436364C600.411557 644.436364 674.958757 569.9264 674.958757 478.362182 674.958757 386.742109 600.411557 312.213527 508.791484 312.213527 417.227266 312.213527 342.73592 386.742109 342.73592 478.362182 342.73592 569.9264 417.227266 644.436364 508.791484 644.436364L508.791484 644.436364ZM801.48792 350.008436C774.938393 350.008436 750.064502 358.907927 729.528648 375.738764 723.589448 380.635345 714.764429 379.778909 709.886466 373.802473 704.989884 367.844655 705.864939 359.038255 711.822757 354.141673 737.031775 333.475491 768.868866 322.081164 801.48792 322.081164 879.702902 322.081164 943.321229 385.680873 943.321229 463.858618 943.321229 542.017745 879.702902 605.598836 801.48792 605.598836 768.831629 605.598836 736.994539 594.223127 711.804139 573.556945 705.864939 568.678982 704.989884 559.872582 709.886466 553.914764 714.764429 547.956945 723.589448 547.081891 729.547266 551.959855 749.729375 568.548655 775.292139 577.671564 801.48792 577.671564 864.287048 577.671564 915.393957 526.620509 915.393957 463.858618 915.393957 401.078109 864.287048 350.008436 801.48792 350.008436L801.48792 350.008436ZM709.569957 182.947491C659.133302 267.008582 553.251702 256.489309 550.254175 256.042473L463.996139 256.042473C460.198029 256.116945 375.001229 258.351127 324.936939 186.391855 297.177229 146.586182 256.403411-6.157382 242.067411-69.719855 240.354539-77.260218 245.083557-84.726109 252.605302-86.420364 260.127048-88.151855 267.592939-83.404218 269.287193-75.863855 284.36792-9.117673 324.136357 136.402036 347.85592 170.417455 389.039339 229.623273 462.450829 227.984873 463.512066 228.1152L551.743629 228.189673C552.674539 228.301382 645.039339 237.182255 686.017957 167.941236 686.334466 167.401309 686.688211 166.88 687.079193 166.377309 712.232357 134.633309 754.346684-8.242618 769.855629-75.919709 771.345084-82.380218 777.098102-86.755491 783.46552-86.755491 784.48952-86.755491 785.532139-86.643782 786.593375-86.420364 794.096502-84.688873 798.806902-77.204364 797.075411-69.664 784.89912-16.583564 741.742175 141.0752 709.569957 182.947491L709.569957 182.947491ZM216.057811 322.081164C248.695484 322.081164 280.569811 333.475491 305.778829 354.141673 311.736648 359.038255 312.611702 367.844655 307.71512 373.802473 302.818539 379.778909 294.030757 380.635345 288.072939 375.738764 267.537084 358.907927 242.644575 350.008436 216.057811 350.008436 153.258683 350.008436 102.170392 401.078109 102.170392 463.858618 102.170392 526.620509 153.258683 577.671564 216.057811 577.671564 242.644575 577.671564 267.518466 568.790691 287.998466 551.959855 293.974902 547.081891 302.781302 547.956945 307.659266 553.914764 312.555848 559.872582 311.680793 568.678982 305.722975 573.556945 280.551193 594.223127 248.695484 605.598836 216.057811 605.598836 137.861447 605.598836 74.24312 542.017745 74.24312 463.858618 74.24312 385.680873 137.861447 322.081164 216.057811 322.081164L216.057811 322.081164ZM980.036284 125.957236C965.160357 193.057164 950.135484 237.815273 935.389884 259.021382 898.712066 311.841164 835.838466 310.202764 833.697375 310.146909L773.672357 310.053818C770.637593 310.463418 698.566611 317.6128 659.952502 262.968436 655.502757 256.675491 657.010829 247.943564 663.303775 243.512436 669.578102 239.081309 678.310029 240.552145 682.759775 246.863709 711.748284 287.9168 770.060429 282.405818 772.145666 282.219636L834.200066 282.219636C834.684139 282.573382 884.357448 283.560145 912.470902 243.084218 921.165593 230.5728 935.22232 199.0336 952.760648 119.924945 954.212866 113.4272 959.984502 108.977455 966.389157 108.977455 967.394539 108.977455 968.39992 109.089164 969.405302 109.312582 976.945666 110.988218 981.693302 118.435491 980.036284 125.957236L980.036284 125.957236ZM338.193084 241.613382C342.140139 234.948073 350.685884 232.751127 357.313957 236.7168 363.960648 240.645236 366.157593 249.2096 362.229157 255.837673 325.290684 318.189964 247.206029 310.426182 245.418684 310.146909L184.388283 310.146909C181.856211 310.146909 118.870901 311.897018 82.174465 259.021382 67.354392 237.703564 52.348138 192.926836 37.565301 125.957236 35.908283 118.416873 40.674538 110.9696 48.196283 109.312582 49.220283 109.089164 50.225665 108.977455 51.212429 108.977455 57.617083 108.977455 63.407338 113.4272 64.840938 119.943564 78.432211 181.551127 92.730974 225.285236 105.112065 243.084218 132.946247 283.2064 181.297665 282.219636 183.904211 282.219636L246.88952 282.294109C247.541157 282.368582 310.526466 288.3264 338.193084 241.613382L338.193084 241.613382Z"  horiz-adv-x="1024" />

    
    <glyph glyph-name="jiangbei" unicode="&#58976;" d="M816 780c8.832 0 16 7.168 16 16s-7.168 16-16 16l-544 0c-8.832 0-16-7.168-16-16s7.168-16 16-16l544 0zM816 748l-608 0c-105.056 0-154.016-37.312-176.608-68.608-27.648-38.4-32.832-89.696-14.592-144.448 28.224-84.672 123.072-186.4 181.376-231.584 2.944-2.272 6.4-3.36 9.824-3.36 4.768 0 9.504 2.112 12.672 6.208 5.408 6.976 4.128 17.024-2.848 22.464-53.568 41.472-144.8 138.944-170.624 216.416-14.944 44.704-11.328 85.76 10.176 115.584 26.08 36.192 78.144 55.328 150.624 55.328l48 0 0-304c0-215.232 213.536-339.232 257.152-362.304-0.672-1.792-1.152-3.68-1.152-5.696l0-80c0-8.832 7.168-16 16-16s16 7.168 16 16l0 80c0 1.856-0.48 3.584-1.056 5.248 48.448 22.784 289.056 146.752 289.056 362.752l0 304 48 0c72.48 0 124.544-19.136 150.624-55.328 21.504-29.824 25.12-70.88 10.176-115.616-20.16-60.512-120.608-177.696-170.624-216.416-6.976-5.408-8.256-15.456-2.848-22.464 3.168-4.064 7.904-6.176 12.672-6.176 3.424 0 6.88 1.088 9.824 3.328 55.424 42.944 158.752 163.808 181.376 231.584 18.24 54.752 13.056 106.048-14.592 144.448-22.592 31.328-71.552 68.64-176.608 68.64l-64 0zM800 412c0-194.976-228.864-313.728-271.552-334.176-39.296 21.28-240.448 139.744-240.448 334.176l0 304 512 0 0-304zM352-84c-36.512 0-64-27.52-64-64l0-48c0-8.832 7.168-16 16-16l448 0c8.832 0 16 7.168 16 16l0 45.6c0 37.216-28.128 66.4-64 66.4l-352 0zM736-150.4l0-29.6-416 0 0 32c0 18.848 13.152 32 32 32l352 0c18.24 0 32-14.784 32-34.4z"  horiz-adv-x="1088" />

    
    <glyph glyph-name="youxiang" unicode="&#58935;" d="M916.347676-44.483752 103.876324-44.483752c-22.471804 0-40.767496 18.287505-40.767496 40.768519L63.108828 612.938292c0 22.473851 18.295692 40.754193 40.767496 40.754193l812.471352 0c22.473851 0 40.769542-18.280342 40.769542-40.754193l0-616.653525C957.116195-26.196247 938.820504-44.483752 916.347676-44.483752zM103.876324 625.352019c-6.848988 0-12.42703-5.570879-12.42703-12.413727l0-616.653525c0-6.850012 5.577019-12.428054 12.42703-12.428054l812.471352 0c6.848988 0 12.429077 5.577019 12.429077 12.428054L928.776753 612.938292c0 6.842849-5.579065 12.413727-12.429077 12.413727L103.876324 625.352019zM510.125815 229.294658 68.547701 575.102568 86.011444 597.410644 510.125815 265.289454 934.212556 597.410644 951.678346 575.102568ZM95.517959-32.886623 75.481623-12.847218 364.488877 276.186641 384.526235 256.148259ZM663.093172 277.066415l289.897187-289.897187-20.038819-20.038819-289.897187 289.897187 20.038819 20.038819Z"  horiz-adv-x="1024" />

    
    <glyph glyph-name="password" unicode="&#59028;" d="M853.932 450.283h-91.222c0 146.514-111.981 258.495-254.703 258.495-142.921 0-254.703-111.981-254.703-258.495h-91.421c0 175.857 155.097 349.717 345.924 349.717 190.827 0 346.124-173.86 346.124-349.717v0zM969.706 300.376c0 50.302-40.92 91.222-91.222 91.222l-730.972 0c-50.302 0-91.222-40.92-91.222-91.222v-433.154c0-50.302 40.92-91.222 91.222-91.222h730.773c50.302 0 91.222 40.92 91.222 91.222v433.154h0.2zM585.257-38.363c0-37.726-30.54-68.466-68.466-68.466h-9.781c-37.726 0-68.466 30.54-68.466 68.466v185.637c0 37.726 30.54 68.466 68.466 68.466h9.781c37.726 0 68.466-30.54 68.466-68.466v-185.637zM585.257-38.363z"  horiz-adv-x="1024" />

    
    <glyph glyph-name="fanhui" unicode="&#58895;" d="M512-201.351c276.89 0 501.351 224.461 501.351 501.351 0 276.89-224.461 501.351-501.351 501.351C235.11 801.351 10.649 576.89 10.649 300 10.649 23.11 235.11-201.351 512-201.351zM512 764.486c256.527 0 464.486-207.96 464.486-464.486 0-256.556-207.96-464.486-464.486-464.486C255.474-164.486 47.514 43.444 47.514 300 47.514 556.526 255.474 764.486 512 764.486zM343.157 274.985l0.204 0.205 259.453-259.425 26.126 26.156L369.518 301.375 628.882 560.71l-26.126 26.156L343.42 327.531l-0.116 0.117-26.186-26.156 0.117-0.117-0.177-0.176L343.157 274.985z"  horiz-adv-x="1024" />

    
    <glyph glyph-name="shopping" unicode="&#58894;" d="M912.53-131.14l-36.637 575.147c-1.073 9.782-9.347 17.187-19.184 17.187h-153.993v77.101c0 106.574-86.409 192.984-192.984 192.984s-192.984-86.409-192.984-192.984v-77.101h-153.013c-9.819 0-18.074-7.369-19.167-17.112l-39.86-578.937c-0.621-5.468 1.112-10.931 4.769-15.019 3.656-4.11 8.896-6.465 14.398-6.465l769.885-0c0.149 0 0.282 0 0.377 0 10.668 0 19.299 8.65 19.299 19.3 0.001 2.072-0.319 4.032-0.905 5.898zM355.343 538.296c0 85.259 69.127 154.388 154.388 154.388 85.26 0 154.387-69.128 154.387-154.388v-77.101h-308.775v77.101zM145.49-117.722l35.469 540.321h135.788v-43.868c-11.534-6.675-19.299-19.138-19.299-33.422 0-21.314 17.282-38.596 38.596-38.596s38.598 17.282 38.598 38.596c0 14.283-7.766 26.746-19.299 33.421v43.869h308.775v-43.869c-11.533-6.675-19.298-19.138-19.298-33.42 0-21.314 17.284-38.596 38.598-38.596s38.596 17.282 38.596 38.596c0 14.283-7.766 26.747-19.299 33.422v43.868h136.693l32.829-540.321-726.749 0z"  horiz-adv-x="1024" />

    
    <glyph glyph-name="xiao10" unicode="&#58917;" d="M360.576 6.0096 360.576 475.1808c0 11.8016-9.5488 21.3248-21.3248 21.3248-11.776 0-21.3248-9.5488-21.3248-21.3248l0-469.1712c0-11.776 9.5488-21.3248 21.3248-21.3248C351.0016-15.3408 360.576-5.7664 360.576 6.0096zM531.1744 6.0096 531.1744 475.1808c0 11.8016-9.5744 21.3248-21.3248 21.3248-11.776 0-21.3248-9.5488-21.3248-21.3248l0-469.1712c0-11.776 9.5744-21.3248 21.3248-21.3248C521.6256-15.3408 531.1744-5.7664 531.1744 6.0096zM147.2768 517.8304c-9.9072 0-18.2784-6.784-20.6336-15.9744C126.4128 501.984 126.1824 502.112 125.952 502.24l0-581.5552c0-47.104 38.1696-85.2992 85.3248-85.2992L808.448-164.6144c47.104 0 85.3248 38.1952 85.3248 85.2992L893.7728 496.5056c0 11.8016-9.5488 21.3248-21.3248 21.3248-11.776 0-21.3248-9.5488-21.3248-21.3248l0-575.8208c0-23.5264-19.0976-42.6496-42.6496-42.6496L211.2768-121.9648c-23.552 0-42.6496 19.1232-42.6496 42.6496L168.6272 496.5056C168.6016 508.2816 159.0528 517.8304 147.2768 517.8304zM83.3024 624.48l255.9232 0c0.3584 0 0.7168 0 1.0752 0.0256 5.9904-0.1536 12.0064 2.048 16.5632 6.6048l78.6944 78.6944 148.7104 0 78.6944-78.6944c4.5568-4.5568 10.5984-6.7584 16.5632-6.6048 0.3584-0.0256 0.7168-0.0256 1.0752-0.0256l255.9232 0c11.776 0 21.3248 9.5488 21.3248 21.3248 0 11.776-9.5488 21.3248-21.3248 21.3248l-245.632 0-78.6944 78.6688c-4.5056 4.5056-10.4448 6.7072-16.3584 6.6048-0.2304 0-0.4608 0.0256-0.7168 0.0256l-170.624 0c-0.2048 0-0.4096 0-0.6144-0.0256-5.888 0.0768-11.8016-2.0992-16.3072-6.6048l-78.6944-78.6688L83.3024 667.1296c-11.776 0-21.3248-9.5488-21.3248-21.3248C61.9776 634.0288 71.5264 624.48 83.3024 624.48zM701.7984 6.0096 701.7984 475.1808c0 11.8016-9.5488 21.3248-21.3248 21.3248-11.776 0-21.3248-9.5488-21.3248-21.3248l0-469.1712c0-11.776 9.5488-21.3248 21.3248-21.3248C692.2496-15.3408 701.7984-5.7664 701.7984 6.0096z"  horiz-adv-x="1024" />

    
    <glyph glyph-name="xiao36" unicode="&#58964;" d="M250.112-48.0832c2.8416-1.5616 5.9648-2.304 9.088-2.304 3.712 0 7.3984 1.0752 10.5984 3.1744l52.864 34.9184c0.8704 0.5632 1.6896 1.2288 2.4576 1.92l60.7232 40.448c30.0544-5.76 59.9296-8.6784 88.9344-8.6784 228.3776 0 414.208 161.6128 414.208 360.2944 0 198.7072-185.8304 360.3712-414.208 360.3712-228.4032 0-414.208-161.664-414.208-360.3712 0-119.1168 66.8672-229.2992 179.4816-296.7808l0-116.1216C240-38.2528 243.8912-44.7296 250.112-48.0832zM98.9184 381.7152c0 177.5616 168.576 321.9712 375.808 321.9712 207.2064 0 375.808-144.4352 375.808-321.9712 0-177.5104-168.6016-321.8944-375.808-321.8944-28.928 0-58.88 3.1744-89.0624 9.4464-4.992 1.0752-10.24 0.0256-14.5408-2.816l-69.9648-46.592c-0.8192-0.5376-1.6128-1.1776-2.3296-1.8176l-20.4288-13.4912 0 91.4688c0 6.9376-3.7376 13.3376-9.7536 16.7168C162.3552 172.6656 98.9184 273.248 98.9184 381.7152zM937.7024 312.0832l-30.8992-22.8096c27.0336-36.6336 41.2928-78.976 41.2928-122.4192 0-77.4144-45.4144-149.2992-121.4976-192.2304-6.016-3.4048-9.7536-9.8048-9.7536-16.7168l0-57.2928L810.24-95.008c-0.6144 0.5376-1.3312 1.0752-2.0224 1.5616l-51.1488 34.0736c-4.2752 2.8672-9.5488 3.9168-14.5664 2.816-89.9072-18.7648-176.9216 1.7152-241.8176 50.3808l-23.0144-30.7456c71.6544-53.6832 166.9376-77.0304 264.7296-58.8032l42.2912-28.1856c0.6656-0.5888 1.3824-1.152 2.1248-1.6384l38.656-25.5488c3.2-2.0992 6.912-3.1744 10.5984-3.1744 3.1232 0 6.2464 0.7424 9.088 2.304 6.2208 3.328 10.112 9.8304 10.112 16.896l0 82.0224c82.4064 50.432 131.2512 131.8656 131.2512 219.9296C986.496 218.592 969.6256 268.8192 937.7024 312.0832z"  horiz-adv-x="1024" />

    
    <glyph glyph-name="xiao56" unicode="&#58968;" d="M513.0752 135.7248c87.68 0 159.0016 73.7024 159.0016 164.2752s-71.3216 164.2752-159.0016 164.2752S354.0736 390.5728 354.0736 300 425.3952 135.7248 513.0752 135.7248zM513.0752 425.8752c66.5088 0 120.6016-56.4736 120.6016-125.8752s-54.0928-125.8752-120.6016-125.8752S392.4736 230.5984 392.4736 300 446.5664 425.8752 513.0752 425.8752zM56.8064 298.08c76.3392-195.6608 257.1264-322.0736 460.4928-322.0736 203.4432 0 384.256 126.4128 460.5952 322.0736l2.7136 6.9632-2.7136 6.9632C901.5296 507.6416 720.7168 634.0544 517.2992 634.0544c-203.3664 0-384.128-126.4128-460.4928-322.0224l-2.7136-6.9632L56.8064 298.08zM517.2992 595.6544c185.0624 0 349.952-113.792 422.0416-290.6112-72.0896-176.8192-236.9792-290.6624-422.0416-290.6624-185.0368 0-349.8496 113.8176-421.9392 290.6624C167.4496 481.8624 332.2624 595.6544 517.2992 595.6544z"  horiz-adv-x="1024" />

    
    <glyph glyph-name="xinlang" unicode="&#58925;" d="M758.352314 310.832314c-39.815529 7.720157-20.429804 29.143843-20.429804 29.143843s38.952157 64.271059-7.730196 110.97349c-57.886118 57.856-198.485333-7.368784-198.485333-7.368784-53.709804-16.685176-39.454118 7.629804-31.844392 48.90102 0 48.670118-16.685176 131.021804-159.733961 82.351686-142.898196-48.89098-265.637647-220.230275-265.637647-220.230275C-10.832314 240.728471 0.501961 152.724706 0.501961 152.724706c21.313255-194.278902 227.739608-247.627294 388.306824-260.256627 168.899765-13.231686 396.910431 58.227451 466.010353 205.091137C923.959216 244.643765 798.328471 302.841098 758.352314 310.832314zM401.317647-52.768C233.592471-60.57851 98.04298 23.52 98.04298 135.39702c0 112.057725 135.54949 201.878588 303.274667 209.618824 167.765333 7.750275 303.595922-61.419922 303.595922-173.196549C704.913569 59.942275 569.08298-45.108078 401.317647-52.768zM367.836863 271.237647c-168.638745-19.737098-149.162667-177.724235-149.162667-177.724235s-1.736784-50.035451 45.216627-75.504941c98.675451-53.438745 200.282353-21.102431 251.64298 45.206588C566.884392 129.534118 536.776784 290.814118 367.836863 271.237647zM325.270588 49.491451c-31.442824-3.694431-56.842039 14.486588-56.842039 40.809412 0 26.252549 22.538039 53.709804 54.041098 56.982588 36.181333 3.463529 59.743373-17.377882 59.743373-43.730824C382.21302 77.320157 356.683294 53.08549 325.270588 49.491451zM424.719059 134.172235c-10.671686-7.951059-23.772863-6.856784-29.394824 2.700549-5.89302 9.336471-3.674353 24.304941 7.087686 32.135529 12.488784 9.306353 25.489569 6.605804 31.131608-2.700549C439.215686 156.760471 435.149804 142.414431 424.719059 134.172235zM840.513255 379.219451c13.57302 0 25.158275 10.059294 27.075765 23.190588 0.230902 0.983843 0.371451 1.857255 0.371451 2.951529C888.560941 590.534902 716.197647 558.680471 716.197647 558.680471c-15.309804 0-27.557647-12.388392-27.557647-27.848784 0-15.169255 12.247843-27.527529 27.557647-27.527529 123.813647 27.286588 96.486902-96.476863 96.486902-96.476863C812.684549 391.487373 825.133176 379.219451 840.513255 379.219451zM820.424784 702.492235c-59.612863 13.964549-120.882196 1.927529-138.059294-1.385412-1.315137-0.110431-2.580078-1.325176-3.804863-1.576157-0.572235-0.13051-0.933647-0.722824-0.933647-0.722824-16.966275-4.808784-29.334588-20.48-29.334588-39.002353 0-22.056157 17.879843-40.217098 40.217098-40.217098 0 0 21.674667 2.911373 36.402196 8.653804 14.58698 5.88298 137.98902 4.397176 199.328627-98.575059 33.420549-75.13349 14.687373-125.409882 12.358275-133.50149 0 0-7.961098-19.516235-7.961098-38.751373 0-22.176627 17.869804-36.10102 40.026353-36.10102 18.542431 0 34.093176 2.489725 38.66102 33.842196l0.240941 0C1073.41302 574.542431 927.061333 677.615059 820.424784 702.492235z"  horiz-adv-x="1024" />

    
    <glyph glyph-name="sousuo" unicode="&#58880;" d="M892.717949 365.641026C892.717949 612.158279 692.876235 812 446.358974 812 199.841713 812 0 612.158279 0 365.641026 0 119.123772 199.841713-80.717949 446.358974-80.717949 692.876235-80.717949 892.717949 119.123772 892.717949 365.641026ZM52.512821 365.641026C52.512821 583.156249 228.843756 759.487179 446.358974 759.487179 663.874192 759.487179 840.205128 583.156249 840.205128 365.641026 840.205128 148.125802 663.874192-28.205128 446.358974-28.205128 228.843756-28.205128 52.512821 148.125802 52.512821 365.641026ZM979.177498-204.309676 1016.309681-167.177504 780.001989 69.130189 742.869806 31.998016 979.177498-204.309676Z"  horiz-adv-x="1024" />

    
    <glyph glyph-name="tixingnaozhong" unicode="&#58909;" d="M880.048356 364.329956C884.872533 340.300089 887.466667 315.451022 887.466667 290.010311c0-107.087644-45.033244-203.434667-116.963556-271.837867l90.294044-90.294044c8.897422-8.897422 8.897422-23.278933 0-32.176356s-23.278933-8.897422-32.176356 0l-93.115733 93.115733c-62.509511-46.444089-139.6736-74.274133-223.505067-74.274133-84.1728 0-161.632711 28.034844-224.233244 74.820267l-91.090489-91.090489c-8.533333-8.533333-22.368711-8.533333-30.879289 0-8.533333 8.510578-8.533333 22.345956 0 30.879289l88.382578 88.405333C181.8624 85.984 136.533333 182.604089 136.533333 290.010311c0 25.440711 2.594133 50.289778 7.418311 74.3424C98.008178 399.692089 68.266667 455.079111 68.266667 517.565867c0 106.814578 86.607644 193.422222 193.422222 193.422222 55.864889 0 106.040889-23.825067 141.357511-61.713067 34.497422 10.467556 71.042844 16.201956 108.9536 16.201956s74.433422-5.7344 108.9536-16.201956c35.316622 37.888 85.492622 61.713067 141.357511 61.713067 106.814578 0 193.422222-86.607644 193.422222-193.422222C955.733333 455.079111 925.991822 399.692089 880.048356 364.329956zM261.688889 665.476978c-81.692444 0-147.911111-66.218667-147.911111-147.911111 0-41.028267 16.702578-78.097067 43.667911-104.880356 33.5872 97.029689 105.654044 175.832178 198.109867 218.339556C329.955556 652.210489 297.528889 665.476978 261.688889 665.476978zM512 619.965867c-182.226489 0-329.955556-147.729067-329.955556-329.955556 0-182.249244 147.729067-329.955556 329.955556-329.955556S841.955556 107.761067 841.955556 290.010311C841.955556 472.214044 694.226489 619.965867 512 619.965867zM762.311111 665.476978c-35.84 0-68.266667-13.266489-93.866667-34.474667 92.455822-42.507378 164.522667-121.309867 198.109867-218.339556C893.519644 439.4688 910.222222 476.5376 910.222222 517.565867 910.222222 599.235556 844.003556 665.476978 762.311111 665.476978zM682.666667 255.876978l-182.044444 0c-12.583822 0-22.755556 10.171733-22.755556 22.755556l0 204.8c0 12.583822 10.171733 22.755556 22.755556 22.755556s22.755556-10.171733 22.755556-22.755556l0-182.044444 159.288889 0c12.583822 0 22.755556-10.171733 22.755556-22.755556S695.250489 255.876978 682.666667 255.876978z"  horiz-adv-x="1024" />

    
    <glyph glyph-name="kefu" unicode="&#58913;" d="M259.048941 114.303694c82.195024-61.198827 164.389024-80.407308 255.07135-80.407308 91.128487 0 189.404768 36.183084 251.05078 88.001263 78.174454-42.437531 147.414421-138.479935 148.753929-231.395114L108.507296-109.497465C119.67566 0.839503 196.509583 80.353464 259.048941 114.303694zM759.809969 162.99465c-65.666582-60.305481-153.667845-96.93575-250.603595-96.93575s-184.938036 36.630269-250.603595 96.489588C141.118018 103.582515 63.836911-1.840536 63.836911-145.234387L957.255877-145.234387C957.255877-1.840536 878.635261 104.0297 759.809969 162.99465zM218.845287 293.434467 218.845287 520.809011l-9.827833-0.447185c51.818179 112.12366 166.622902 189.851952 300.18892 189.851952 133.119857 0 247.923556-77.727269 299.741735-189.851952l-9.380648 0.447185 0-227.375567c63.879889 0 116.14423 50.924833 116.14423 113.464191 0 42.883693-24.122397 79.961146-59.859319 99.615788C806.26807 647.228259 670.022013 748.184579 509.206374 748.184579s-297.061696-100.95632-347.093183-241.670132c-35.736922-19.655665-59.412135-56.732096-59.412135-99.615788C102.701057 344.3593 154.519236 293.434467 218.845287 293.434467L218.845287 293.434467zM508.759189 183.0975c-116.14423 0-209.953779 92.021833-209.953779 205.486024s99.615788 205.486024 209.953779 205.486024c115.698069 0 209.506595-92.021833 209.506595-205.486024S624.457258 183.0975 508.759189 183.0975zM509.206374 634.273203c-138.927119 0-251.496941-110.336968-251.496941-246.136863 0-136.246057 112.570845-246.584048 251.496941-246.584048 138.479935 0 251.05078 110.336968 251.05078 246.584048C760.257154 523.936235 647.686309 634.273203 509.206374 634.273203z"  horiz-adv-x="1024" />

    
    <glyph glyph-name="geren" unicode="&#58888;" d="M540.842397 269.699903M256.722454 475.656649c0 137.247874 113.578802 248.478188 253.686816 248.478188 140.119271 0 253.686816-111.230314 253.686816-248.478188 0-137.226385-113.567545-248.473071-253.686816-248.473071C370.307396 227.178461 256.722454 338.431288 256.722454 475.656649L256.722454 475.656649 256.722454 475.656649zM211.951785 475.656649c0-117.863385 71.251787-219.473597 173.847443-265.72806-172.775019-48.938596-302.560944-197.078541-320.840262-377.394303l44.989657 0c22.275329 197.319018 193.054901 350.796528 400.459624 350.796528s378.189412-153.476487 400.460648-350.796528l44.989657 0C937.591513 12.851071 807.793308 160.989993 635.020336 209.928588c102.594633 46.249347 173.85256 147.864676 173.85256 265.72806 0 161.450089-133.629463 292.324812-298.462602 292.324812C345.572038 767.982484 211.951785 637.111854 211.951785 475.656649L211.951785 475.656649 211.951785 475.656649zM211.951785 475.656649"  horiz-adv-x="1024" />

    
    <glyph glyph-name="jiantou1" unicode="&#59015;" d="M396.763-83.511c-0.001 8.583 3.241 17.168 9.738 23.769l436.548 443.422-436.638 446.942c-13.076 13.385-12.827 34.835 0.558 47.911s34.836 12.827 47.911-0.559l459.86-470.709c12.897-13.199 12.857-34.293-0.092-47.446l-459.86-467.101c-13.125-13.333-34.579-13.502-47.913-0.373-6.736 6.631-10.11 15.388-10.111 24.146zM190.235 734.168c0 5.871 2.272 11.732 6.803 16.158 8.924 8.717 23.223 8.55 31.941-0.371l342.505-350.582c8.58-8.784 8.574-22.813-0.018-31.587l-341.148-348.401c-8.727-8.913-23.028-9.063-31.941-0.337-8.913 8.727-9.065 23.029-0.337 31.941l325.693 332.615-327.066 334.778c-4.291 4.394-6.432 10.092-6.432 15.783z"  horiz-adv-x="1024" />

    
    <glyph glyph-name="licaicunqianguan" unicode="&#58969;" d="M750.186359 233.18832c-1.998355 22.391634-10.396475 61.428689-23.992832 84.416059 14.194607 26.94889 11.595488 53.105979 10.197896 65.194143-1.400106 12.088164-7.397685 46.965121-7.397685 46.965121-1.799777 13.078544-15.594712 8.32271-15.594712 8.32271-7.196593-2.179338-35.58832-5.152992-35.58832-5.152992-28.989977-2.576496-43.586769-7.530909-57.979955-16.446841-10.597567 5.152992-27.391293 11.492428-39.187874 15.257883-11.796581 3.765454-14.194607-7.133751-14.194607-7.133751s-2.599119-8.124131-3.999224-11.296363c-21.991963 3.169718-47.06818 3.964033-47.06818 3.964033l-3.368297 0c0 0-25.53873-0.791801-47.530693-3.964033-1.400106 3.169718-3.999224 11.296363-3.999224 11.296363s-2.398026 10.899206-14.194607 7.133751c-11.796581-3.765454-28.590306-10.107405-39.187874-15.257883-14.395699 8.918446-28.989977 13.870346-57.979955 16.446841 0 0-28.391728 2.97114-35.58832 5.152992 0 0-13.794936 4.755834-15.594712-8.32271 0 0-5.99758-34.876956-7.397685-46.965121-1.400106-12.088164-3.999224-38.245253 10.197896-65.194143-13.596357-22.98737-21.991963-62.024425-23.992832-84.416059 0 0-14.594278-88.181513 45.185453-164.274862l1.000434-84.21748c0 0-1.400106-10.899206 10.597567-10.899206s40.585465 0 40.585465 0 8.546425-1.221636 11.796581 6.736594l9.996804 23.580593c0 0 45.52731-29.723964 116.701437-31.111502l2.179338 0c71.176641 1.387537 116.238925 31.111502 116.238925 31.111502l9.996804-23.580593c3.250155-7.95823 11.796581-6.736594 11.796581-6.736594s28.590306 0 40.585465 0 10.597567 10.899206 10.597567 10.899206l1.000434 84.21748C764.783151 145.006807 750.186359 233.18832 750.186359 233.18832zM689.607286 79.812664c-2.800211-3.566876-3.599553-4.954413-3.599553-11.492428l-0.666118-75.500126-28.791399 0-11.728712 27.212824c0 0-3.732777 12.417453-16.260831 4.755834 0 0-46.118019-32.235105-114.627672-32.762973l-0.932566 0c-68.509653 0.527867-114.627672 32.762973-114.627672 32.762973-12.528054 7.661619-16.260831-4.755834-16.260831-4.755834l-11.728712-27.212824L341.589307-7.179891l-0.666118 75.500126c0 6.540529-0.799342 7.925553-3.599553 11.492428-43.184584 56.871433-42.586334 117.50832-42.586334 117.50832-2.398026 66.58168 22.992398 112.159264 22.992398 112.159264 1.998355 3.566876 6.198672 7.925553 0.201092 16.248263-10.997238 20.212296-9.197462 42.60393-9.197462 42.60393-0.399671 16.64542 6.198672 44.783268 6.598343 50.134839 3.999224-1.586116 27.790964-4.160098 27.790964-4.160098 35.987991-1.98076 48.184243-10.107405 56.582363-15.853619 1.799777-1.387537 6.198672-4.755834 12.196252-0.99038 8.39812 5.547635 32.788109 13.67428 32.788109 13.67428l4.197803-11.691007c1.799777-4.557256 6.397251-6.935173 11.995159-5.547635 0 0 36.387662 4.755834 52.183467 4.358677l0.799342 0c15.795805 0.397157 52.183467-4.358677 52.183467-4.358677 5.597909-1.387537 10.195383 0.99038 11.995159 5.547635l4.197803 11.691007c0 0 24.392503-8.124131 32.788109-13.67428 5.99758-3.765454 10.396475-0.397157 12.196252 0.99038 8.39812 5.746214 20.594371 13.870346 56.582363 15.853619 0 0 23.79174 2.576496 27.790964 4.160098 0.399671-5.349057 6.998014-33.489419 6.598343-50.134839 0 0 1.799777-22.391634-9.197462-42.60393-5.99758-8.32271-1.799777-12.681387 0.201092-16.248263 0 0 25.392938-45.577583 22.992398-112.159264C732.19362 197.320984 732.79187 136.684097 689.607286 79.812664zM363.744658 270.15161c0 0-8.719867 1.784695-8.32271 9.511669 0 0 0.198579 46.965121 50.134839 50.728061 30.714344 0.99038 53.105979-27.147469 51.323797-51.125219 0 0-0.198579-9.114511-9.710247-8.918446-9.31309 0.593222-9.31309 9.511669-9.31309 9.511669s1.188959 14.66466-12.286743 24.96813c-13.475702 10.30347-32.30046 7.33233-40.821749-1.784695 0 0-10.30347-9.114511-10.502048-23.580593C374.445285 273.125263 367.708691 270.15161 363.744658 270.15161zM663.186263 270.15161c0 0 8.719867 1.784695 8.32271 9.511669 0 0-0.198579 46.965121-50.134839 50.728061-30.714344 0.99038-53.105979-27.147469-51.323797-51.125219 0 0 0.198579-9.114511 9.710247-8.918446 9.31309 0.593222 9.31309 9.511669 9.31309 9.511669s-1.188959 14.66466 12.286743 24.96813 32.30046 7.33233 40.821749-1.784695c0 0 10.30347-9.114511 10.502048-23.580593C652.485636 273.125263 659.22223 270.15161 663.186263 270.15161zM513.465461 270.7574c-51.904452 0-93.980514-42.076063-93.980514-93.980514s42.076063-93.980514 93.980514-93.980514 93.980514 42.076063 93.980514 93.980514S565.369912 270.7574 513.465461 270.7574zM513.465461 101.817195c-41.397376 0-74.957177 33.559801-74.957177 74.957177s33.559801 74.957177 74.957177 74.957177 74.957177-33.559801 74.957177-74.957177S554.862836 101.817195 513.465461 101.817195zM476.492117 178.24486m-12.54565 0a4.991 4.991 0 1 0 25.091299 0 4.991 4.991 0 1 0-25.091299 0ZM550.670061 178.24486m-12.54565 0a4.991 4.991 0 1 0 25.091299 0 4.991 4.991 0 1 0-25.091299 0ZM513.465461 694.029167c-65.475672 0-118.554001-53.078328-118.554001-118.554001 0-65.475672 53.078328-118.554001 118.554001-118.554001s118.554001 53.078328 118.554001 118.554001C632.019461 640.950839 578.941133 694.029167 513.465461 694.029167zM513.465461 476.163191c-54.847941 0-99.311975 44.464034-99.311975 99.311975s44.464034 99.311975 99.311975 99.311975 99.311975-44.464034 99.311975-99.311975S568.313402 476.163191 513.465461 476.163191zM515.214964 576.535929l44.225237 49.219869c0 0 5.354084 5.917143 12.962916 0.563059 6.764244-6.764244 0.281529-14.091547 0.281529-14.091547l-33.293354-36.711924 18.907709 0.007541c0 0 8.360415 0.389616 9.373418-8.541398 1.013003-8.928501-7.706865-10.132541-7.706865-10.132541l-35.379687 0.037705-0.10306-43.976385c0 0 0.389616-8.360415-8.541398-9.373418l-1.648957 0c-8.928501 1.013003-8.541398 9.373418-8.541398 9.373418l-0.10306 43.976385-35.379687-0.037705c0 0-8.722381 1.204041-7.706865 10.132541 1.013003 8.928501 9.373418 8.541398 9.373418 8.541398l18.907709-0.007541-33.293354 36.711924c0 0-6.482715 7.327303 0.281529 14.091547 7.608832 5.354084 12.962916-0.563059 12.962916-0.563059L515.214964 576.535929z"  horiz-adv-x="1024" />

    
    <glyph glyph-name="medal" unicode="&#58961;" d="M511.999 565.323c-93.626 0-169.527-75.19-169.527-168.819 0-93.626 75.9-170.232 169.527-170.232 93.63 0 169.525 76.606 169.525 170.232 0 93.63-75.895 168.819-169.525 168.819zM511.999 268.977c-70.034 0-126.821 57.491-126.821 127.527 0 70.036 56.786 126.112 126.821 126.112 70.037 0 126.818-56.075 126.818-126.112 0.001-70.034-56.78-127.527-126.818-127.527zM850.185 396.504c0 186.782-151.402 338.8-338.186 338.8-186.78 0-338.186-152.016-338.186-338.8 0-126.265 69.199-235.733 171.734-293.821v-261.987h42.273l129.461 79.769 124.177-79.769h42.274l-0 265.050c99.621 58.84 166.452 166.676 166.452 290.758zM641.46-103.41l-129.46 71.841-124.178-74.91-0 188.938c38.443-15.183 80.337-23.527 124.178-23.527 45.863 0 89.582 9.147 129.46 25.686l0-188.029zM511.999 101.393c-44.318 0-86.435 9.759-124.178 27.222l-3.543 1.654c-99.526 47.658-168.274 148.511-168.274 266.235 0 163.439 132.578 296.713 295.994 296.713s295.831-133.275 295.831-296.713c0-163.435-132.413-295.111-295.83-295.111z"  horiz-adv-x="1024" />

    
    </font>
</defs>
</svg>
